<svg width="67" height="26" viewBox="0 0 67 26" fill="none" xmlns="http://www.w3.org/2000/svg">
  <path fill-rule="evenodd" clip-rule="evenodd" d="M10.8158 19.8007H14.9227L9.46937 12.8421L14.6012 6.19922H10.5566L7.41848 10.2339L4.28038 6.19922H0.231504L5.39418 12.8451L0 19.8007H4.10003L7.44607 15.4817L10.8158 19.8007ZM13.3423 6.81751L10.859 6.81747L7.4205 11.2383L7.42256 11.241L10.863 6.81751H13.3423ZM3.97803 6.81751L1.49465 6.81747L6.1768 12.8448L1.26184 19.1825H1.26595L6.18088 12.8448L1.49873 6.81751H3.97803ZM7.44641 14.4771L11.1176 19.1825H11.1217L7.44842 14.4745L7.44641 14.4771Z" fill="black" />
  <path d="M26.4713 17.1889V19.4288C24.9878 20.0397 23.7369 20.2434 22.1079 20.2434C17.628 20.2434 14.9227 17.6253 14.9227 13C14.9227 8.37473 17.6862 5.75665 22.1079 5.75665C23.5914 5.75665 25.0459 5.96028 26.4713 6.54208V8.81108C24.8423 8.08383 23.3587 7.85111 22.166 7.85111C19.1407 7.85111 17.3371 9.50923 17.3371 13C17.3371 16.4908 19.4607 18.178 22.166 18.178C23.8242 18.178 25.4532 17.6835 26.4713 17.1889Z" fill="black" />
  <path d="M38.5422 19.9525H36.2441V13.5527C36.2441 12.3891 35.6623 11.6037 34.2951 11.6037C32.637 11.6037 31.3861 12.9709 31.3861 14.309V19.9525H29.088V6.04755H31.3861V11.2255C32.0843 10.3528 33.3061 9.65468 34.7024 9.65468C37.1459 9.65468 38.5422 11.051 38.5422 13.2618V19.9525Z" fill="black" />
  <path d="M50.3864 19.9525H48.1174C48.1174 19.9525 47.8555 19.2543 47.8555 18.6434C47.0701 19.5161 45.8774 20.2434 44.3648 20.2434C42.3576 20.2434 40.4377 19.4579 40.4377 16.8399C40.4377 12.5055 47.7392 14.7745 47.7392 12.6509C47.7392 11.8073 46.6338 11.6037 45.4411 11.6037C44.3066 11.6037 42.7939 11.8946 41.514 12.7091V10.731C42.5612 10.0328 43.8412 9.65468 45.5284 9.65468C47.7974 9.65468 50.0082 10.6437 50.0082 12.5637V17.5089C50.0082 18.4689 50.3864 19.9525 50.3864 19.9525ZM47.7101 16.3453V14.949C46.1392 15.6472 42.7067 15.0945 42.7067 16.9271C42.7067 18.0325 43.6375 18.3234 44.6266 18.3234C46.1392 18.3234 47.7101 17.3926 47.7101 16.3453Z" fill="black" />
  <path d="M54.8857 8.34564H52.5876V6.04755H54.8857V8.34564ZM54.8857 19.9525H52.5876V9.80013H54.8857V19.9525Z" fill="black" />
  <path d="M66.9627 19.9525H64.6647V13.4364C64.6647 12.2146 63.9956 11.6037 62.8029 11.6037C61.2902 11.6037 59.8067 12.8836 59.8067 14.2218V19.9525H57.5086V9.80013H59.8067V11.2837C60.5921 10.3237 61.9011 9.65468 63.2683 9.65468C65.4501 9.65468 66.9627 10.7601 66.9627 13.2909V19.9525Z" fill="black" />
</svg>