<svg width="69" height="25" viewBox="0 0 69 25" fill="none" xmlns="http://www.w3.org/2000/svg">
  <path fill-rule="evenodd" clip-rule="evenodd" d="M10.1374 18.6175H13.9866L8.87536 12.0953L13.6852 5.8692H9.89436L6.95312 9.6508L4.01187 5.8692H0.216982L5.0558 12.0982L0 18.6175H3.84284L6.97898 14.5694L10.1374 18.6175ZM12.5053 6.44871L10.1778 6.44867L6.95501 10.5922L6.95694 10.5947L10.1816 6.44871H12.5053ZM3.72849 6.44871L1.40089 6.44867L5.78933 12.0979L1.18268 18.038H1.18653L5.79315 12.0979L1.40472 6.44871H3.72849ZM6.97929 13.6278L10.4202 18.038H10.424L6.98119 13.6254L6.97929 13.6278Z" fill="white" />
  <path d="M27.5353 16.4323V18.6722C26.0517 19.2831 24.8008 19.4867 23.1718 19.4867C18.692 19.4867 15.9866 16.8686 15.9866 12.2433C15.9866 7.61808 18.7502 5 23.1718 5C24.6554 5 26.1099 5.20363 27.5353 5.78542V8.05442C25.9062 7.32718 24.4227 7.09446 23.23 7.09446C20.2046 7.09446 18.4011 8.75258 18.4011 12.2433C18.4011 15.7341 20.5246 17.4213 23.23 17.4213C24.8881 17.4213 26.5171 16.9268 27.5353 16.4323Z" fill="white" />
  <path d="M39.6062 19.1958H37.3081V12.7961C37.3081 11.6325 36.7263 10.847 35.3591 10.847C33.7009 10.847 32.4501 12.2143 32.4501 13.5524V19.1958H30.152V5.2909H32.4501V10.4689C33.1482 9.59618 34.37 8.89803 35.7663 8.89803C38.2098 8.89803 39.6062 10.2943 39.6062 12.5052V19.1958Z" fill="white" />
  <path d="M51.4503 19.1958H49.1813C49.1813 19.1958 48.9195 18.4976 48.9195 17.8868C48.1341 18.7595 46.9414 19.4867 45.4287 19.4867C43.4215 19.4867 41.5016 18.7013 41.5016 16.0832C41.5016 11.7488 48.8031 14.0178 48.8031 11.8943C48.8031 11.0507 47.6977 10.847 46.505 10.847C45.3705 10.847 43.8579 11.1379 42.5779 11.9525V9.97435C43.6251 9.27619 44.9051 8.89803 46.5923 8.89803C48.8613 8.89803 51.0721 9.88708 51.0721 11.807V16.7523C51.0721 17.7122 51.4503 19.1958 51.4503 19.1958ZM48.774 15.5887V14.1924C47.2032 14.8905 43.7706 14.3378 43.7706 16.1705C43.7706 17.2759 44.7015 17.5668 45.6905 17.5668C47.2032 17.5668 48.774 16.6359 48.774 15.5887Z" fill="white" />
  <path d="M55.9497 7.58899H53.6516V5.2909H55.9497V7.58899ZM55.9497 19.1958H53.6516V9.04348H55.9497V19.1958Z" fill="white" />
  <path d="M68.0267 19.1958H65.7286V12.6797C65.7286 11.4579 65.0595 10.847 63.8668 10.847C62.3542 10.847 60.8706 12.127 60.8706 13.4651V19.1958H58.5725V9.04348H60.8706V10.5271C61.656 9.56709 62.9651 8.89803 64.3323 8.89803C66.514 8.89803 68.0267 10.0034 68.0267 12.5342V19.1958Z" fill="white" />
</svg>