<svg width="129" height="44" viewBox="0 0 129 44" fill="none" xmlns="http://www.w3.org/2000/svg">
  <path d="M29.5329 18.8827C29.5329 14.2613 25.7865 10.515 21.1652 10.515H0L6.76497 15.4372H18.0479C21.6724 15.4372 24.6107 18.3754 24.6107 22C24.6107 25.6246 21.6724 28.5629 18.0479 28.5629H6.76497L0 33.485H21.1652C25.7865 33.485 29.5329 29.7387 29.5329 25.1174V24.9173L26.6104 22L29.5329 19.0799V18.8827Z" fill="white" />
  <rect x="5.54863" y="19.2099" width="15.2958" height="5.57843" rx="2.78921" fill="white" />
  <path d="M41.1764 28.7998C40.171 28.7998 39.2409 28.6238 38.3863 28.2719C37.5443 27.92 36.8028 27.4299 36.1618 26.8015C35.5208 26.1731 35.0244 25.4441 34.6725 24.6147C34.3206 23.7726 34.1447 22.8677 34.1447 21.9C34.1447 20.9197 34.3206 20.0148 34.6725 19.1853C35.0244 18.3558 35.5146 17.6332 36.143 17.0173C36.7713 16.389 37.5066 15.9051 38.3486 15.5658C39.2032 15.2138 40.1333 15.0379 41.1387 15.0379C42.1316 15.0379 43.049 15.2138 43.8911 15.5658C44.7457 15.9051 45.4872 16.389 46.1156 17.0173C46.7566 17.6332 47.253 18.3621 47.6049 19.2042C47.9568 20.0336 48.1327 20.9385 48.1327 21.9188C48.1327 22.8866 47.9568 23.7915 47.6049 24.6335C47.253 25.463 46.7628 26.1919 46.1344 26.8203C45.506 27.4362 44.7645 27.92 43.9099 28.2719C43.0679 28.6238 42.1567 28.7998 41.1764 28.7998ZM41.1387 26.104C41.9305 26.104 42.6217 25.928 43.2124 25.5761C43.8157 25.2242 44.2807 24.734 44.6074 24.1057C44.9342 23.4647 45.0976 22.7295 45.0976 21.9C45.0976 21.2716 45.0033 20.706 44.8148 20.2033C44.6263 19.688 44.3561 19.2482 44.0042 18.8837C43.6523 18.5066 43.2313 18.2239 42.7411 18.0353C42.2635 17.8343 41.7294 17.7337 41.1387 17.7337C40.3469 17.7337 39.6494 17.9097 39.0461 18.2616C38.4554 18.6009 37.9967 19.0848 37.67 19.7132C37.3432 20.329 37.1798 21.0579 37.1798 21.9C37.1798 22.5284 37.2741 23.1002 37.4626 23.6155C37.6511 24.1308 37.915 24.5769 38.2544 24.954C38.6063 25.3185 39.0273 25.6012 39.5174 25.8023C40.0076 26.0034 40.548 26.104 41.1387 26.104Z" fill="white" />
  <path d="M55.0262 28.7621C54.4104 28.7621 53.8448 28.6427 53.3295 28.4039C52.8142 28.1651 52.3932 27.8383 52.0665 27.4236C51.7397 26.9963 51.5512 26.5124 51.5009 25.972V22.1074C51.5512 21.5669 51.7397 21.0768 52.0665 20.6369C52.3932 20.197 52.8142 19.8514 53.3295 19.6001C53.8448 19.3487 54.4104 19.223 55.0262 19.223C55.8934 19.223 56.66 19.4304 57.3261 19.8451C58.0048 20.2599 58.5326 20.8254 58.9097 21.5418C59.2993 22.2582 59.4941 23.0751 59.4941 23.9925C59.4941 24.91 59.2993 25.7269 58.9097 26.4433C58.5326 27.1597 58.0048 27.7252 57.3261 28.14C56.66 28.5547 55.8934 28.7621 55.0262 28.7621ZM54.4983 26.1605C54.9131 26.1605 55.2713 26.0662 55.5729 25.8777C55.8871 25.6892 56.1322 25.4316 56.3081 25.1048C56.4841 24.778 56.572 24.4073 56.572 23.9925C56.572 23.5652 56.4841 23.1882 56.3081 22.8614C56.1322 22.5347 55.8871 22.2833 55.5729 22.1074C55.2713 21.9188 54.9194 21.8246 54.5172 21.8246C54.115 21.8246 53.7568 21.9188 53.4426 22.1074C53.141 22.2833 52.9022 22.5347 52.7263 22.8614C52.5503 23.1882 52.4623 23.5652 52.4623 23.9925C52.4623 24.4073 52.544 24.778 52.7074 25.1048C52.8834 25.4316 53.1284 25.6892 53.4426 25.8777C53.7568 26.0662 54.1087 26.1605 54.4983 26.1605ZM49.7477 32.4382V25.9249V22.6682V20.6178L48.8908 19.4115H51.1898H52.632V21.768L52.1607 23.9925L52.5943 26.2171V32.4382H49.7477Z" fill="white" />
  <path d="M65.4838 28.7809C64.491 28.7809 63.6049 28.5798 62.8257 28.1777C62.0591 27.7629 61.4558 27.1911 61.0159 26.4621C60.5761 25.7332 60.3561 24.91 60.3561 23.9925C60.3561 23.0751 60.5698 22.2582 60.9971 21.5418C61.437 20.8129 62.0277 20.241 62.7692 19.8263C63.5107 19.4115 64.3464 19.2042 65.2765 19.2042C66.1814 19.2042 66.9794 19.399 67.6707 19.7886C68.3619 20.1782 68.9023 20.7186 69.2919 21.4098C69.6941 22.1011 69.8952 22.8928 69.8952 23.7852C69.8952 23.9486 69.8826 24.1245 69.8575 24.313C69.8449 24.489 69.8135 24.6963 69.7632 24.9351L61.8643 24.954V22.9745L68.5378 22.9557L67.2936 23.7852C67.281 23.2573 67.1993 22.8237 67.0485 22.4844C66.8977 22.1325 66.6715 21.8686 66.3699 21.6926C66.0808 21.5041 65.7226 21.4098 65.2953 21.4098C64.8429 21.4098 64.447 21.5167 64.1076 21.7303C63.7809 21.9314 63.5232 22.2205 63.3347 22.5975C63.1588 22.9745 63.0708 23.4333 63.0708 23.9737C63.0708 24.5141 63.165 24.9791 63.3536 25.3687C63.5547 25.7458 63.8312 26.0411 64.1831 26.2548C64.5475 26.4559 64.9748 26.5564 65.465 26.5564C65.9174 26.5564 66.3259 26.481 66.6903 26.3302C67.0548 26.1668 67.3753 25.928 67.6518 25.6138L69.2354 27.1974C68.7829 27.7252 68.2362 28.1211 67.5952 28.385C66.9543 28.649 66.2505 28.7809 65.4838 28.7809Z" fill="white" />
  <path d="M77.3389 28.5735V23.3516C77.3389 22.874 77.188 22.4907 76.8864 22.2016C76.5974 21.9 76.2266 21.7492 75.7742 21.7492C75.46 21.7492 75.1835 21.8183 74.9447 21.9565C74.7059 22.0822 74.5174 22.2707 74.3791 22.5221C74.2409 22.7609 74.1717 23.0374 74.1717 23.3516L73.0595 22.8049C73.0595 22.0885 73.2166 21.4601 73.5308 20.9197C73.845 20.3793 74.2786 19.9645 74.8316 19.6755C75.3971 19.3738 76.0318 19.223 76.7356 19.223C77.4143 19.223 78.0112 19.3864 78.5265 19.7132C79.0544 20.0274 79.4691 20.4484 79.7708 20.9762C80.0724 21.5041 80.2232 22.0822 80.2232 22.7106V28.5735H77.3389ZM71.2874 28.5735V23.9925V21.702V20.6193L70.4305 19.4115H74.1717V28.5735H71.2874Z" fill="white" />
  <path d="M84.6018 28.5735V26.2736H87.7313C88.3094 26.2736 88.7618 26.104 89.0886 25.7646C89.4153 25.4253 89.5787 25.0105 89.5787 24.5204C89.5787 24.1811 89.5033 23.8794 89.3525 23.6155C89.2017 23.3516 88.988 23.1442 88.7115 22.9934C88.4476 22.8426 88.1209 22.7672 87.7313 22.7672H84.6018V20.5238H87.4862C87.9763 20.5238 88.3722 20.4044 88.6738 20.1656C88.9755 19.9143 89.1263 19.5372 89.1263 19.0345C89.1263 18.5443 88.9755 18.1799 88.6738 17.9411C88.3722 17.6897 87.9763 17.564 87.4862 17.564H84.6018V15.2641H88.0517C88.9063 15.2641 89.629 15.4212 90.2197 15.7354C90.823 16.0496 91.2817 16.4706 91.5959 16.9985C91.9101 17.5263 92.0672 18.1108 92.0672 18.7517C92.0672 19.5686 91.8032 20.2599 91.2754 20.8254C90.7475 21.391 89.9683 21.7806 88.9378 21.9942L89.0132 20.9951C90.1317 21.2087 90.9926 21.6423 91.5959 22.2959C92.2117 22.9494 92.5196 23.7537 92.5196 24.7089C92.5196 25.4379 92.3374 26.0977 91.9729 26.6884C91.621 27.2665 91.1057 27.7252 90.4271 28.0645C89.761 28.4039 88.9566 28.5735 88.014 28.5735H84.6018ZM82.3396 28.5735V21.9188V18.5915V16.4688L81.4827 15.2641H85.2617V28.5735H82.3396Z" fill="white" />
  <path d="M94.1527 28.5735V14.8871H97.037V28.5735H94.1527Z" fill="white" />
  <path d="M103.479 28.7809C102.537 28.7809 101.682 28.5735 100.916 28.1588C100.162 27.7315 99.5646 27.1534 99.1247 26.4244C98.6848 25.6955 98.4649 24.8786 98.4649 23.9737C98.4649 23.0688 98.6848 22.2582 99.1247 21.5418C99.5646 20.8254 100.162 20.2599 100.916 19.8451C101.67 19.4178 102.524 19.2042 103.479 19.2042C104.435 19.2042 105.289 19.4115 106.043 19.8263C106.797 20.241 107.394 20.8129 107.834 21.5418C108.274 22.2582 108.494 23.0688 108.494 23.9737C108.494 24.8786 108.274 25.6955 107.834 26.4244C107.394 27.1534 106.797 27.7315 106.043 28.1588C105.289 28.5735 104.435 28.7809 103.479 28.7809ZM103.479 26.1605C103.894 26.1605 104.259 26.0725 104.573 25.8966C104.887 25.7081 105.126 25.4504 105.289 25.1237C105.465 24.7843 105.553 24.401 105.553 23.9737C105.553 23.5464 105.465 23.1756 105.289 22.8614C105.113 22.5347 104.868 22.2833 104.554 22.1074C104.252 21.9188 103.894 21.8246 103.479 21.8246C103.077 21.8246 102.719 21.9188 102.405 22.1074C102.091 22.2833 101.846 22.5347 101.67 22.8614C101.494 23.1882 101.406 23.5652 101.406 23.9925C101.406 24.4073 101.494 24.7843 101.67 25.1237C101.846 25.4504 102.091 25.7081 102.405 25.8966C102.719 26.0725 103.077 26.1605 103.479 26.1605Z" fill="white" />
  <path d="M114.36 28.7809C113.418 28.7809 112.563 28.5735 111.796 28.1588C111.03 27.7441 110.426 27.1722 109.987 26.4433C109.547 25.7143 109.327 24.8974 109.327 23.9925C109.327 23.0751 109.547 22.2582 109.987 21.5418C110.439 20.8129 111.049 20.241 111.815 19.8263C112.582 19.4115 113.443 19.2042 114.398 19.2042C115.114 19.2042 115.768 19.3298 116.359 19.5812C116.962 19.82 117.496 20.1845 117.961 20.6746L116.113 22.5221C115.9 22.2833 115.648 22.1074 115.359 21.9942C115.083 21.8811 114.762 21.8246 114.398 21.8246C113.983 21.8246 113.612 21.9188 113.286 22.1074C112.971 22.2833 112.72 22.5347 112.532 22.8614C112.356 23.1756 112.268 23.5464 112.268 23.9737C112.268 24.401 112.356 24.778 112.532 25.1048C112.72 25.4316 112.978 25.6892 113.305 25.8777C113.631 26.0662 113.996 26.1605 114.398 26.1605C114.775 26.1605 115.108 26.0977 115.397 25.972C115.699 25.8337 115.956 25.6452 116.17 25.4064L117.999 27.2539C117.521 27.7566 116.981 28.14 116.377 28.4039C115.774 28.6552 115.102 28.7809 114.36 28.7809Z" fill="white" />
  <path d="M125.145 28.5735L121.94 23.8229L125.126 19.4115H128.35L124.504 24.3696L124.599 23.1819L128.539 28.5735H125.145ZM119.282 28.5735V14.8871H122.167V28.5735H119.282Z" fill="white" />
</svg>