<svg width="44" height="44" viewBox="0 0 44 44" fill="none" xmlns="http://www.w3.org/2000/svg">
  <g clip-path="url(#clip0_42_1621)">
    <path d="M43.1802 0.819863C31.4827 12.5173 14.888 14.888 6.1149 6.1149C14.888 14.888 12.5173 31.4827 0.819866 43.1802C12.5173 31.4827 29.112 29.112 37.8851 37.8851C29.112 29.112 31.4827 12.5173 43.1802 0.819863Z" fill="white" />
    <path d="M43.1802 0.819863C31.4827 12.5173 14.888 14.888 6.1149 6.1149C14.888 14.888 12.5173 31.4827 0.819866 43.1802C12.5173 31.4827 29.112 29.112 37.8851 37.8851C29.112 29.112 31.4827 12.5173 43.1802 0.819863Z" fill="#171719" />
    <path d="M43.1802 0.819763C27.6985 16.3014 26.0861 26.0017 26.0861 26.0017C26.0861 26.0017 16.7879 27.212 0.819888 43.1801C12.5174 31.4826 29.112 29.1119 37.8851 37.885C29.112 29.1119 31.4827 12.5172 43.1802 0.819763Z" fill="#484851" />
    <path d="M43.1802 0.819763C27.6985 16.3014 29.5986 29.5141 29.5986 29.5141C29.5986 29.5141 16.7879 27.212 0.819888 43.1801C12.5174 31.4826 29.112 29.1119 37.8851 37.885C29.112 29.1119 31.4827 12.5172 43.1802 0.819763Z" fill="#6C6C7A" />
  </g>
  <defs>
    <clipPath id="clip0_42_1621">
      <rect width="44" height="44" fill="white" />
    </clipPath>
  </defs>
</svg>