<svg width="40" height="40" viewBox="0 0 40 40" fill="none" xmlns="http://www.w3.org/2000/svg">
  <path d="M12.4541 19.6024C12.4541 19.6024 19.1607 16.7492 21.4867 15.7445C22.3784 15.3426 25.4021 14.0566 25.4021 14.0566C25.4021 14.0566 26.7978 13.494 26.6815 14.8604C26.6427 15.423 26.3325 17.3921 26.0224 19.522C25.5572 22.5361 25.0532 25.8313 25.0532 25.8313C25.0532 25.8313 24.9757 26.7557 24.3167 26.9164C23.6577 27.0771 22.5722 26.3538 22.3784 26.193C22.2233 26.0725 19.4708 24.2641 18.4629 23.38C18.1915 23.1388 17.8814 22.6566 18.5017 22.094C19.8973 20.7678 21.5642 19.1202 22.5722 18.0753C23.0374 17.5931 23.5026 16.4679 21.5642 17.8342C18.8118 19.8034 16.0982 21.6519 16.0982 21.6519C16.0982 21.6519 15.4779 22.0538 14.3149 21.6921C13.1518 21.3305 11.795 20.8482 11.795 20.8482C11.795 20.8482 10.8647 20.2454 12.4541 19.6024Z" fill="white" />
</svg>