<svg width="40" height="40" viewBox="0 0 40 40" fill="none" xmlns="http://www.w3.org/2000/svg">
  <path d="M25.8826 15.2965L27 14.2361V14.0039H23.1299L20.3719 20.8163L17.2346 14.0039H13.1768V14.2361L14.482 15.7952C14.6096 15.9105 14.6753 16.0797 14.6589 16.2489V22.3754C14.699 22.5969 14.6279 22.8219 14.4711 22.9821L13 24.7519V24.9805H17.1672V24.7483L15.6979 22.9839C15.5393 22.8237 15.4628 22.6005 15.4956 22.3772V17.0771L19.1542 24.9841H19.5789L22.7253 17.0771V23.3764C22.7253 23.542 22.7253 23.5762 22.6159 23.6861L21.4839 24.7717V25.0039H26.9745V24.7717L25.8826 23.7113C25.7878 23.6393 25.7385 23.5186 25.7586 23.4016V15.6062C25.7385 15.4892 25.7878 15.3686 25.8826 15.2965Z" fill="white" />
</svg>