<svg width="40" height="40" viewBox="0 0 40 40" fill="none" xmlns="http://www.w3.org/2000/svg">
  <path d="M29.0302 16.0202C28.4286 16.2864 27.7905 16.4611 27.1373 16.5388C27.8258 16.127 28.3412 15.4788 28.5873 14.7152C27.9411 15.0998 27.2326 15.3693 26.4942 15.5151C25.9982 14.9844 25.3407 14.6324 24.624 14.5139C23.9073 14.3954 23.1716 14.517 22.5311 14.8597C21.8907 15.2025 21.3814 15.7473 21.0825 16.4094C20.7836 17.0715 20.7118 17.8137 20.8783 18.5208C19.5678 18.4551 18.2858 18.1146 17.1155 17.5213C15.9451 16.9279 14.9127 16.0951 14.0851 15.0769C13.7921 15.5801 13.6382 16.152 13.639 16.7342C13.639 17.8769 14.2206 18.8865 15.1049 19.4775C14.5816 19.4611 14.0698 19.3197 13.6122 19.0654V19.1064C13.6124 19.8674 13.8757 20.605 14.3576 21.194C14.8395 21.7831 15.5103 22.1873 16.2562 22.3383C15.7705 22.4699 15.2611 22.4893 14.7668 22.395C14.9771 23.0501 15.387 23.623 15.9391 24.0335C16.4912 24.444 17.1579 24.6716 17.8458 24.6844C17.1621 25.2213 16.3793 25.6182 15.5421 25.8524C14.705 26.0867 13.8298 26.1536 12.9668 26.0493C14.4734 27.0182 16.2272 27.5326 18.0184 27.5309C24.0811 27.5309 27.3965 22.5085 27.3965 18.1528C27.3965 18.0109 27.3926 17.8675 27.3863 17.7272C28.0316 17.2608 28.5886 16.683 29.031 16.021L29.0302 16.0202Z" fill="white" />
</svg>