<svg xmlns="http://www.w3.org/2000/svg" width="58" height="74" viewBox="0 0 58 74" fill="none">
  <path d="M27.2689 13.0086C25.7403 17.3135 11.4301 16.6808 7.40234 5.26874C8.34214 18.6946 21.6673 20.5966 28.2125 19.8694C28.2125 19.1981 27.2689 13.9484 27.2689 13.0086Z" fill="white" />
  <path d="M28.2116 30.2579V27.4851C16.1858 26.6603 6.89804 24.5966 6.89804 33.0613C6.89804 63.7092 0.856445 68.9624 0.856445 68.9624C0.856445 68.9624 9.29543 64.0191 14.8518 49.4052C16.2364 45.7634 9.25272 42.35 12.2322 34.7954C13.8867 30.6002 19.1301 30.2579 28.2116 30.2579Z" fill="white" />
  <path d="M30.6384 13.0087C32.1669 17.3136 46.4771 16.6808 50.5049 5.2688C49.5651 18.6946 36.2399 20.5967 29.6948 19.8695C29.6948 19.1982 30.6384 13.9485 30.6384 13.0087Z" fill="white" />
  <path d="M29.7879 30.258V27.4851C41.8137 26.6603 51.1015 24.5967 51.1015 33.0614C51.1015 63.7092 57.1431 68.9624 57.1431 68.9624C57.1431 68.9624 48.7041 64.0192 43.1477 49.4052C41.7631 45.7635 48.7468 42.3501 45.7674 34.7955C44.1128 30.6003 38.8694 30.258 29.7879 30.258Z" fill="white" />
  <path d="M27.187 4.06017C27.187 3.79419 27.2471 3.53164 27.3628 3.29214C28.0054 1.96167 29.9004 1.96167 30.543 3.29214C30.6587 3.53164 30.7188 3.79419 30.7188 4.06017V19.6887C30.7188 26.8041 31.7587 33.8813 33.8055 40.696C34.6286 43.4365 34.6286 46.3584 33.8055 49.099L33.6202 49.716C31.6895 56.144 30.3143 62.7259 29.5097 69.3892L28.9529 74L28.3962 69.3892C27.5916 62.7259 26.2163 56.144 24.2857 49.716L24.1003 49.0989C23.2772 46.3584 23.2772 43.4365 24.1003 40.696C26.1471 33.8813 27.187 26.8041 27.187 19.6887V4.06017Z" fill="white" />
</svg>