<svg xmlns="http://www.w3.org/2000/svg" width="23" height="30" viewBox="0 0 23 30" fill="none">
  <path d="M10.5843 5.38566C9.97178 7.11081 4.23714 6.85724 2.62305 2.284C2.99966 7.66425 8.33958 8.42647 10.9625 8.13505C10.9625 7.86604 10.5843 5.76227 10.5843 5.38566Z" fill="#171719" />
  <path d="M10.9623 12.2982V11.187C6.14307 10.8564 2.4211 10.0295 2.4211 13.4216C2.4211 25.7034 0 27.8085 0 27.8085C0 27.8085 3.38183 25.8276 5.60849 19.9712C6.16336 18.5118 3.36471 17.1439 4.55869 14.1165C5.22172 12.4353 7.32297 12.2982 10.9623 12.2982Z" fill="#171719" />
  <path d="M11.9347 5.38566C12.5473 7.11081 18.2819 6.85724 19.896 2.284C19.5194 7.66425 14.1795 8.42647 11.5566 8.13505C11.5566 7.86604 11.9347 5.76227 11.9347 5.38566Z" fill="#171719" />
  <path d="M11.5939 12.2982V11.187C16.4131 10.8564 20.1351 10.0295 20.1351 13.4216C20.1351 25.7034 22.5562 27.8085 22.5562 27.8085C22.5562 27.8085 19.1743 25.8276 16.9477 19.9712C16.3928 18.5118 19.1914 17.1439 17.9975 14.1165C17.3344 12.4353 15.2332 12.2982 11.5939 12.2982Z" fill="#171719" />
  <path d="M10.5518 1.79973C10.5518 1.69315 10.5758 1.58793 10.6222 1.49195C10.8797 0.958786 11.6391 0.958786 11.8966 1.49196C11.943 1.58793 11.9671 1.69315 11.9671 1.79973V8.06269C11.9671 10.9141 12.3838 13.7502 13.204 16.4811C13.5339 17.5794 13.5339 18.7503 13.204 19.8485L13.1298 20.0958C12.3561 22.6717 11.805 25.3094 11.4825 27.9796L11.2594 29.8273L11.0363 27.9796C10.7139 25.3094 10.1628 22.6718 9.38906 20.0958L9.31479 19.8485C8.98493 18.7503 8.98493 17.5794 9.31479 16.4811C10.135 13.7502 10.5518 10.9141 10.5518 8.06269V1.79973Z" fill="#171719" />
</svg>