<svg width="150" height="151" viewBox="0 0 150 151" fill="none" xmlns="http://www.w3.org/2000/svg">
  <g clip-path="url(#clip0_34_299)">
    <path d="M122.069 28.312C96.0735 54.3071 59.1954 59.5754 39.6991 40.0791C59.1954 59.5754 53.9271 96.4535 27.932 122.449C53.9271 96.4535 90.8052 91.1852 110.302 110.682C90.8052 91.1852 96.0735 54.3071 122.069 28.312Z" fill="white" />
    <path d="M122.069 28.312C87.6639 62.7167 84.0808 84.2735 84.0808 84.2735C84.0808 84.2735 63.4175 86.9632 27.932 122.449C53.9271 96.4535 90.8052 91.1853 110.302 110.682C90.8052 91.1853 96.0735 54.3071 122.069 28.312Z" fill="#CBD0DD" />
    <path d="M122.069 28.312C87.6639 62.7167 91.8864 92.0791 91.8864 92.0791C91.8864 92.0791 63.4175 86.9632 27.932 122.449C53.9271 96.4535 90.8052 91.1853 110.302 110.682C90.8052 91.1853 96.0735 54.3071 122.069 28.312Z" fill="#A3A8B5" />
  </g>
  <defs>
    <clipPath id="clip0_34_299">
      <rect width="150" height="150" fill="white" transform="translate(0 0.380249)" />
    </clipPath>
  </defs>
</svg>