<svg width="40" height="40" viewBox="0 0 40 40" fill="none" xmlns="http://www.w3.org/2000/svg">
  <path d="M25.8211 15.0974C25.8165 15.0884 25.8088 15.0814 25.7994 15.0775C24.7143 14.5797 23.5693 14.2247 22.393 14.0214C22.3823 14.0195 22.3712 14.0209 22.3614 14.0255C22.3516 14.0302 22.3435 14.0378 22.3382 14.0473C22.1823 14.3303 22.0408 14.621 21.9142 14.9183C20.6461 14.7258 19.3563 14.7258 18.0882 14.9183C17.9608 14.6202 17.817 14.3295 17.6575 14.0473C17.652 14.038 17.6439 14.0306 17.6341 14.0259C17.6243 14.0213 17.6134 14.0198 17.6027 14.0214C16.4262 14.2243 15.2811 14.5793 14.1962 15.0775C14.187 15.0815 14.1791 15.0882 14.1738 15.0968C12.0043 18.3368 11.4099 21.4971 11.7015 24.6182C11.7023 24.6259 11.7047 24.6333 11.7084 24.64C11.7121 24.6467 11.7172 24.6526 11.7233 24.6574C12.9866 25.5928 14.3996 26.3068 15.9021 26.7689C15.9127 26.772 15.924 26.7719 15.9344 26.7685C15.9449 26.765 15.9541 26.7585 15.9608 26.7496C16.2835 26.3106 16.5694 25.8456 16.8157 25.3595C16.8191 25.3529 16.821 25.3456 16.8213 25.3381C16.8217 25.3306 16.8205 25.3231 16.8177 25.3162C16.815 25.3092 16.8108 25.3029 16.8054 25.2977C16.8001 25.2925 16.7937 25.2884 16.7867 25.2859C16.3358 25.1134 15.8993 24.9054 15.4812 24.6639C15.4736 24.6594 15.4672 24.6532 15.4626 24.6457C15.458 24.6382 15.4554 24.6296 15.4548 24.6208C15.4543 24.612 15.456 24.6033 15.4597 24.5952C15.4633 24.5872 15.4689 24.5803 15.476 24.5749C15.5639 24.5092 15.6504 24.4415 15.7352 24.3718C15.7426 24.3657 15.7516 24.3618 15.7612 24.3605C15.7708 24.3592 15.7805 24.3606 15.7893 24.3645C18.5281 25.6145 21.4932 25.6145 24.1996 24.3645C24.2084 24.3603 24.2182 24.3587 24.2279 24.3599C24.2376 24.3611 24.2468 24.365 24.2543 24.3712C24.3393 24.4412 24.4259 24.5092 24.5142 24.5749C24.5213 24.5802 24.5269 24.5871 24.5307 24.5951C24.5344 24.6031 24.5361 24.6119 24.5357 24.6207C24.5352 24.6295 24.5326 24.638 24.5281 24.6455C24.5235 24.6531 24.5172 24.6594 24.5096 24.6639C24.0925 24.9074 23.6556 25.1153 23.2035 25.2852C23.1965 25.2879 23.1901 25.292 23.1848 25.2973C23.1795 25.3026 23.1754 25.309 23.1727 25.316C23.17 25.323 23.1688 25.3305 23.1692 25.338C23.1696 25.3455 23.1716 25.3529 23.1751 25.3595C23.4255 25.8429 23.711 26.3073 24.0293 26.7489C24.0358 26.7579 24.0449 26.7647 24.0555 26.7683C24.066 26.7719 24.0774 26.772 24.088 26.7688C25.5932 26.3082 27.0087 25.5942 28.2736 24.6574C28.2798 24.6529 28.2849 24.6471 28.2886 24.6405C28.2924 24.6338 28.2947 24.6265 28.2954 24.6189C28.6444 21.0105 27.711 17.8761 25.8211 15.0974ZM17.2247 22.7178C16.4001 22.7178 15.7207 21.9611 15.7207 21.0317C15.7207 20.1024 16.3869 19.3457 17.2247 19.3457C18.069 19.3457 18.7418 20.109 18.7287 21.0317C18.7287 21.9611 18.0624 22.7178 17.2247 22.7178ZM22.7854 22.7178C21.9609 22.7178 21.2815 21.9611 21.2815 21.0317C21.2815 20.1024 21.9477 19.3457 22.7854 19.3457C23.6298 19.3457 24.3026 20.109 24.2894 21.0317C24.2894 21.9611 23.6298 22.7178 22.7854 22.7178Z" fill="white" />
</svg>