<svg width="23" height="30" viewBox="0 0 23 30" fill="none" xmlns="http://www.w3.org/2000/svg">
<path d="M10.5843 5.38566C9.97178 7.11081 4.23714 6.85724 2.62305 2.284C2.99966 7.66425 8.33958 8.42647 10.9625 8.13505C10.9625 7.86604 10.5843 5.76227 10.5843 5.38566Z" fill="white"/>
<path d="M10.9623 12.2982V11.187C6.14307 10.8564 2.4211 10.0295 2.4211 13.4216C2.4211 25.7034 0 27.8085 0 27.8085C0 27.8085 3.38183 25.8276 5.60849 19.9712C6.16336 18.5118 3.36471 17.1439 4.55869 14.1165C5.22172 12.4353 7.32297 12.2982 10.9623 12.2982Z" fill="white"/>
<path d="M11.9352 5.38566C12.5477 7.11081 18.2824 6.85724 19.8965 2.284C19.5199 7.66425 14.1799 8.42647 11.5571 8.13505C11.5571 7.86604 11.9352 5.76227 11.9352 5.38566Z" fill="white"/>
<path d="M11.5944 12.2982V11.187C16.4136 10.8564 20.1355 10.0295 20.1355 13.4216C20.1355 25.7034 22.5566 27.8085 22.5566 27.8085C22.5566 27.8085 19.1748 25.8276 16.9482 19.9712C16.3933 18.5118 19.1919 17.1439 17.998 14.1165C17.3349 12.4353 15.2337 12.2982 11.5944 12.2982Z" fill="white"/>
<path d="M10.5513 1.79973C10.5513 1.69315 10.5753 1.58793 10.6217 1.49195C10.8792 0.958786 11.6386 0.958786 11.8961 1.49196C11.9425 1.58793 11.9666 1.69315 11.9666 1.79973V8.06269C11.9666 10.9141 12.3833 13.7502 13.2035 16.4811C13.5334 17.5794 13.5334 18.7503 13.2035 19.8485L13.1293 20.0958C12.3556 22.6717 11.8045 25.3094 11.482 27.9796L11.2589 29.8273L11.0358 27.9796C10.7134 25.3094 10.1623 22.6718 9.38857 20.0958L9.3143 19.8485C8.98444 18.7503 8.98444 17.5794 9.3143 16.4811C10.1345 13.7502 10.5513 10.9141 10.5513 8.06269V1.79973Z" fill="white"/>
</svg>
