<svg width="77" height="30" viewBox="0 0 77 30" fill="none" xmlns="http://www.w3.org/2000/svg">
<path d="M10.5843 5.38566C9.97178 7.11081 4.23714 6.85724 2.62305 2.284C2.99966 7.66425 8.33958 8.42647 10.9625 8.13505C10.9625 7.86604 10.5843 5.76227 10.5843 5.38566Z" fill="white"/>
<path d="M10.9623 12.2982V11.187C6.14307 10.8564 2.4211 10.0295 2.4211 13.4216C2.4211 25.7034 0 27.8085 0 27.8085C0 27.8085 3.38183 25.8276 5.60849 19.9712C6.16336 18.5118 3.36471 17.1439 4.55869 14.1165C5.22172 12.4353 7.32297 12.2982 10.9623 12.2982Z" fill="white"/>
<path d="M11.9352 5.38566C12.5477 7.11081 18.2824 6.85724 19.8965 2.284C19.5199 7.66425 14.1799 8.42647 11.5571 8.13505C11.5571 7.86604 11.9352 5.76227 11.9352 5.38566Z" fill="white"/>
<path d="M11.5944 12.2982V11.187C16.4136 10.8564 20.1355 10.0295 20.1355 13.4216C20.1355 25.7034 22.5566 27.8085 22.5566 27.8085C22.5566 27.8085 19.1748 25.8276 16.9482 19.9712C16.3933 18.5118 19.1919 17.1439 17.998 14.1165C17.3349 12.4353 15.2337 12.2982 11.5944 12.2982Z" fill="white"/>
<path d="M10.5513 1.79973C10.5513 1.69315 10.5753 1.58793 10.6217 1.49195C10.8792 0.958786 11.6386 0.958786 11.8961 1.49196C11.9425 1.58793 11.9666 1.69315 11.9666 1.79973V8.06269C11.9666 10.9141 12.3833 13.7502 13.2035 16.4811C13.5334 17.5794 13.5334 18.7503 13.2035 19.8485L13.1293 20.0958C12.3556 22.6717 11.8045 25.3094 11.482 27.9796L11.2589 29.8273L11.0358 27.9796C10.7134 25.3094 10.1623 22.6718 9.38857 20.0958L9.3143 19.8485C8.98444 18.7503 8.98444 17.5794 9.3143 16.4811C10.1345 13.7502 10.5513 10.9141 10.5513 8.06269V1.79973Z" fill="white"/>
<path d="M32.123 19.915H27.5566V9.83887H32.4512C33.6862 9.8571 34.5612 10.2148 35.0762 10.9121C35.3861 11.3405 35.541 11.8532 35.541 12.4502C35.541 13.0654 35.3861 13.5599 35.0762 13.9336C34.903 14.1432 34.6478 14.3346 34.3105 14.5078C34.8255 14.6947 35.2129 14.9909 35.4727 15.3965C35.737 15.8021 35.8691 16.2943 35.8691 16.873C35.8691 17.4701 35.7188 18.0055 35.418 18.4795C35.2266 18.7939 34.9873 19.0583 34.7002 19.2725C34.3766 19.5186 33.9938 19.6872 33.5518 19.7783C33.1143 19.8695 32.638 19.915 32.123 19.915ZM32.0752 15.4785H29.5664V18.165H32.041C32.4831 18.165 32.8271 18.1058 33.0732 17.9873C33.5199 17.7686 33.7432 17.3493 33.7432 16.7295C33.7432 16.2054 33.5267 15.8454 33.0938 15.6494C32.8522 15.54 32.5127 15.4831 32.0752 15.4785ZM33.1211 13.5576C33.3945 13.3936 33.5312 13.0996 33.5312 12.6758C33.5312 12.2064 33.349 11.8965 32.9844 11.7461C32.6699 11.6413 32.2689 11.5889 31.7812 11.5889H29.5664V13.8105H32.041C32.4831 13.8105 32.8431 13.7262 33.1211 13.5576Z" fill="white"/>
<path d="M43.8604 17.7275C43.8102 18.1696 43.5801 18.6185 43.1699 19.0742C42.5319 19.7988 41.6387 20.1611 40.4902 20.1611C39.5423 20.1611 38.7061 19.8558 37.9814 19.2451C37.2568 18.6344 36.8945 17.641 36.8945 16.2646C36.8945 14.9749 37.2204 13.986 37.8721 13.2979C38.5283 12.6097 39.3783 12.2656 40.4219 12.2656C41.0417 12.2656 41.5999 12.3818 42.0967 12.6143C42.5934 12.8467 43.0036 13.2135 43.3271 13.7148C43.6188 14.1569 43.8079 14.6696 43.8945 15.2529C43.9447 15.5947 43.9652 16.0869 43.9561 16.7295H38.8564C38.8838 17.4769 39.1185 18.001 39.5605 18.3018C39.8294 18.4886 40.153 18.582 40.5312 18.582C40.9323 18.582 41.2581 18.4681 41.5088 18.2402C41.6455 18.1172 41.7663 17.9463 41.8711 17.7275H43.8604ZM41.9326 15.4443C41.9007 14.9294 41.7435 14.5397 41.4609 14.2754C41.1829 14.0065 40.8366 13.8721 40.4219 13.8721C39.9707 13.8721 39.6198 14.0133 39.3691 14.2959C39.123 14.5785 38.9681 14.9613 38.9043 15.4443H41.9326Z" fill="white"/>
<path d="M48.7822 13.9062C48.1214 13.9062 47.668 14.1865 47.4219 14.7471C47.2943 15.0433 47.2305 15.4215 47.2305 15.8818V19.915H45.2891V12.4775H47.1689V13.5645C47.4196 13.1816 47.6566 12.9059 47.8799 12.7373C48.2809 12.4365 48.7891 12.2861 49.4043 12.2861C50.1745 12.2861 50.8034 12.4889 51.291 12.8945C51.7832 13.2956 52.0293 13.9632 52.0293 14.8975V19.915H50.0332V15.3828C50.0332 14.9909 49.9808 14.6901 49.876 14.4805C49.6846 14.0977 49.32 13.9062 48.7822 13.9062Z" fill="white"/>
<path d="M61.1348 11.623H56.083V13.9404H60.5059V15.6904H56.083V19.915H53.9912V9.85254H61.1348V11.623Z" fill="white"/>
<path d="M68.7705 17.7275C68.7204 18.1696 68.4902 18.6185 68.0801 19.0742C67.4421 19.7988 66.5488 20.1611 65.4004 20.1611C64.4525 20.1611 63.6162 19.8558 62.8916 19.2451C62.167 18.6344 61.8047 17.641 61.8047 16.2646C61.8047 14.9749 62.1305 13.986 62.7822 13.2979C63.4385 12.6097 64.2884 12.2656 65.332 12.2656C65.9518 12.2656 66.5101 12.3818 67.0068 12.6143C67.5036 12.8467 67.9137 13.2135 68.2373 13.7148C68.529 14.1569 68.7181 14.6696 68.8047 15.2529C68.8548 15.5947 68.8753 16.0869 68.8662 16.7295H63.7666C63.7939 17.4769 64.0286 18.001 64.4707 18.3018C64.7396 18.4886 65.0632 18.582 65.4414 18.582C65.8424 18.582 66.1683 18.4681 66.4189 18.2402C66.5557 18.1172 66.6764 17.9463 66.7812 17.7275H68.7705ZM66.8428 15.4443C66.8109 14.9294 66.6536 14.5397 66.3711 14.2754C66.0931 14.0065 65.7467 13.8721 65.332 13.8721C64.8809 13.8721 64.5299 14.0133 64.2793 14.2959C64.0332 14.5785 63.8783 14.9613 63.8145 15.4443H66.8428Z" fill="white"/>
<path d="M73.6924 13.9062C73.0316 13.9062 72.5781 14.1865 72.332 14.7471C72.2044 15.0433 72.1406 15.4215 72.1406 15.8818V19.915H70.1992V12.4775H72.0791V13.5645C72.3298 13.1816 72.5667 12.9059 72.79 12.7373C73.1911 12.4365 73.6992 12.2861 74.3145 12.2861C75.0846 12.2861 75.7135 12.4889 76.2012 12.8945C76.6934 13.2956 76.9395 13.9632 76.9395 14.8975V19.915H74.9434V15.3828C74.9434 14.9909 74.8909 14.6901 74.7861 14.4805C74.5947 14.0977 74.2301 13.9062 73.6924 13.9062Z" fill="white"/>
</svg>
