<svg width="16" height="16" viewBox="0 0 16 16" fill="none" xmlns="http://www.w3.org/2000/svg">
<g clip-path="url(#clip0_1991_6917)">
<path d="M8.5778 1.99999L14.9285 13C14.987 13.1013 15.0178 13.2163 15.0178 13.3333C15.0178 13.4503 14.987 13.5653 14.9285 13.6667C14.87 13.768 14.7858 13.8522 14.6845 13.9107C14.5831 13.9692 14.4682 14 14.3511 14H1.6498C1.53278 14 1.41782 13.9692 1.31648 13.9107C1.21513 13.8522 1.13098 13.768 1.07247 13.6667C1.01396 13.5653 0.983154 13.4503 0.983154 13.3333C0.983155 13.2163 1.01396 13.1013 1.07247 13L7.42314 1.99999C7.48165 1.89865 7.56581 1.8145 7.66715 1.75599C7.76849 1.69749 7.88345 1.66669 8.00047 1.66669C8.11749 1.66669 8.23245 1.69749 8.33379 1.75599C8.43513 1.8145 8.51929 1.89865 8.5778 1.99999ZM7.3338 10.6667V12H8.66714V10.6667H7.3338ZM7.3338 5.99999V9.33332H8.66714V5.99999H7.3338Z" fill="#EB362A"/>
</g>
<defs>
<clipPath id="clip0_1991_6917">
<rect width="16" height="16" fill="white"/>
</clipPath>
</defs>
</svg>
