<svg width="14" height="14" viewBox="0 0 14 14" fill="none" xmlns="http://www.w3.org/2000/svg">
<g clip-path="url(#clip0_2460_9871)">
<path d="M7.00002 12.8332C3.77827 12.8332 1.16669 10.2216 1.16669 6.99984C1.16669 3.77809 3.77827 1.1665 7.00002 1.1665C10.2218 1.1665 12.8334 3.77809 12.8334 6.99984C12.8334 10.2216 10.2218 12.8332 7.00002 12.8332ZM7.00002 11.6665C8.2377 11.6665 9.42468 11.1748 10.2999 10.2997C11.175 9.4245 11.6667 8.23751 11.6667 6.99984C11.6667 5.76216 11.175 4.57518 10.2999 3.70001C9.42468 2.82484 8.2377 2.33317 7.00002 2.33317C5.76234 2.33317 4.57536 2.82484 3.70019 3.70001C2.82502 4.57518 2.33335 5.76216 2.33335 6.99984C2.33335 8.23751 2.82502 9.4245 3.70019 10.2997C4.57536 11.1748 5.76234 11.6665 7.00002 11.6665ZM6.41669 8.74984H7.58335V9.9165H6.41669V8.74984ZM7.58335 7.79025V8.1665H6.41669V7.2915C6.41669 7.13679 6.47815 6.98842 6.58754 6.87903C6.69694 6.76963 6.84531 6.70817 7.00002 6.70817C7.16573 6.70816 7.32804 6.66109 7.46804 6.57245C7.60805 6.4838 7.72001 6.35722 7.79089 6.20743C7.86177 6.05764 7.88865 5.8908 7.86842 5.72633C7.84818 5.56186 7.78166 5.40651 7.67659 5.27837C7.57152 5.15023 7.43222 5.05455 7.2749 5.00249C7.11758 4.95042 6.94871 4.94409 6.78794 4.98425C6.62716 5.0244 6.4811 5.10939 6.36673 5.22931C6.25237 5.34924 6.17442 5.49917 6.14194 5.66167L4.99744 5.43242C5.06839 5.0778 5.23223 4.74839 5.47222 4.47785C5.71221 4.2073 6.01974 4.00534 6.36336 3.89261C6.70699 3.77987 7.07439 3.7604 7.428 3.8362C7.78162 3.91199 8.10876 4.08032 8.376 4.32399C8.64323 4.56765 8.84097 4.87791 8.949 5.22304C9.05703 5.56817 9.07148 5.93581 8.99086 6.28835C8.91024 6.6409 8.73745 6.96571 8.49016 7.22959C8.24286 7.49347 7.92993 7.68695 7.58335 7.79025Z" fill="#A3A8B5"/>
</g>
<defs>
<clipPath id="clip0_2460_9871">
<rect width="14" height="14" fill="white"/>
</clipPath>
</defs>
</svg>
