<svg width="18" height="18" viewBox="0 0 18 18" fill="none" xmlns="http://www.w3.org/2000/svg">
<g clip-path="url(#clip0_1627_24666)">
<path d="M6.00165 14.9999V16.4489C6.00176 16.5202 5.98154 16.5901 5.94335 16.6503C5.90516 16.7106 5.85058 16.7587 5.78602 16.789C5.72147 16.8193 5.6496 16.8305 5.57887 16.8215C5.50813 16.8124 5.44145 16.7833 5.38665 16.7377L2.29665 14.1629C2.23738 14.1135 2.19481 14.047 2.17473 13.9725C2.15465 13.898 2.15805 13.8191 2.18446 13.7466C2.21087 13.674 2.25901 13.6115 2.32231 13.5673C2.38561 13.5232 2.46098 13.4996 2.53815 13.4999H13.5016C13.8995 13.4999 14.281 13.3419 14.5623 13.0606C14.8436 12.7793 15.0016 12.3977 15.0016 11.9999V5.9999H16.5016V11.9999C16.5016 12.7956 16.1856 13.5586 15.623 14.1212C15.0604 14.6838 14.2973 14.9999 13.5016 14.9999H6.00165ZM12.0016 2.9999V1.5509C12.0015 1.47958 12.0218 1.40971 12.0599 1.34948C12.0981 1.28925 12.1527 1.24116 12.2173 1.21085C12.2818 1.18053 12.3537 1.16926 12.4244 1.17835C12.4952 1.18744 12.5618 1.21651 12.6166 1.26215L15.7066 3.8369C15.7659 3.88628 15.8084 3.95272 15.8285 4.02716C15.8486 4.1016 15.8453 4.18042 15.819 4.2529C15.7926 4.32537 15.7446 4.38797 15.6814 4.43217C15.6183 4.47637 15.543 4.50002 15.4659 4.4999H4.50165C4.10382 4.4999 3.72229 4.65794 3.44099 4.93924C3.15968 5.22055 3.00165 5.60208 3.00165 5.9999V11.9999H1.50165V5.9999C1.50165 5.20425 1.81772 4.44119 2.38033 3.87858C2.94294 3.31597 3.706 2.9999 4.50165 2.9999H12.0016Z" fill="#171719"/>
</g>
<defs>
<clipPath id="clip0_1627_24666">
<rect width="18" height="18" fill="white"/>
</clipPath>
</defs>
</svg>
