<svg width="20" height="20" viewBox="0 0 20 20" fill="none" xmlns="http://www.w3.org/2000/svg">
<g clip-path="url(#clip0_2434_5316)">
<path d="M4.5516 3.69401C6.06374 2.38373 7.99826 1.66372 9.99911 1.66651C14.6016 1.66651 18.3324 5.39735 18.3324 9.99984C18.3324 11.7798 17.7741 13.4298 16.8241 14.7832L14.1658 9.99984H16.6658C16.6659 8.69286 16.2818 7.41468 15.5613 6.32422C14.8408 5.23377 13.8157 4.37914 12.6134 3.86662C11.4111 3.35409 10.0847 3.20626 8.79907 3.44153C7.51344 3.67679 6.32532 4.28476 5.38244 5.18985L4.5516 3.69401ZM15.4466 16.3057C13.9345 17.616 11.9999 18.336 9.99911 18.3332C5.39661 18.3332 1.66577 14.6023 1.66577 9.99984C1.66577 8.21984 2.2241 6.56984 3.1741 5.21651L5.83244 9.99984H3.33244C3.33233 11.3068 3.7164 12.585 4.43689 13.6755C5.15737 14.7659 6.18249 15.6205 7.38479 16.1331C8.58708 16.6456 9.91351 16.7934 11.1991 16.5582C12.4848 16.3229 13.6729 15.7149 14.6158 14.8098L15.4466 16.3057Z" fill="#5A6070"/>
</g>
<defs>
<clipPath id="clip0_2434_5316">
<rect width="20" height="20" fill="white"/>
</clipPath>
</defs>
</svg>
