<svg width="38" height="38" viewBox="0 0 38 38" fill="none" xmlns="http://www.w3.org/2000/svg">
<rect x="0.5" y="0.5" width="37" height="37" rx="18.5" fill="white"/>
<g clip-path="url(#clip0_1627_21345)">
<path d="M12 16C12.2652 16 12.5196 16.1054 12.7071 16.2929C12.8946 16.4804 13 16.7348 13 17C14.5711 16.9977 16.097 17.5263 17.33 18.5H19.5C20.833 18.5 22.03 19.08 22.854 20H26C26.9453 19.9997 27.8712 20.2674 28.6705 20.772C29.4698 21.2767 30.1097 21.9975 30.516 22.851C28.151 25.972 24.322 28 20 28C17.21 28 14.85 27.397 12.94 26.342C12.87 26.5351 12.7422 26.7018 12.574 26.8196C12.4058 26.9374 12.2053 27.0003 12 27H9C8.73478 27 8.48043 26.8946 8.29289 26.7071C8.10536 26.5196 8 26.2652 8 26V17C8 16.7348 8.10536 16.4804 8.29289 16.2929C8.48043 16.1054 8.73478 16 9 16H12ZM13.001 19L13 24.022L13.045 24.054C14.84 25.314 17.178 26 20 26C23.004 26 25.799 24.844 27.835 22.87L27.968 22.737L27.848 22.637C27.3758 22.2672 26.8034 22.0477 26.205 22.007L26 22H23.889C23.961 22.322 24 22.656 24 23V24H15V22L21.79 21.999L21.756 21.921C21.5644 21.5205 21.2696 21.1783 20.9019 20.9295C20.5343 20.6806 20.107 20.5341 19.664 20.505L19.5 20.5H16.57C16.1053 20.0247 15.5503 19.6472 14.9375 19.3896C14.3248 19.132 13.6667 18.9995 13.002 19H13.001ZM11 18H10V25H11V18ZM25 12C25.7956 12 26.5587 12.3161 27.1213 12.8787C27.6839 13.4413 28 14.2044 28 15C28 15.7956 27.6839 16.5587 27.1213 17.1213C26.5587 17.6839 25.7956 18 25 18C24.2044 18 23.4413 17.6839 22.8787 17.1213C22.3161 16.5587 22 15.7956 22 15C22 14.2044 22.3161 13.4413 22.8787 12.8787C23.4413 12.3161 24.2044 12 25 12ZM25 14C24.7348 14 24.4804 14.1054 24.2929 14.2929C24.1054 14.4804 24 14.7348 24 15C24 15.2652 24.1054 15.5196 24.2929 15.7071C24.4804 15.8946 24.7348 16 25 16C25.2652 16 25.5196 15.8946 25.7071 15.7071C25.8946 15.5196 26 15.2652 26 15C26 14.7348 25.8946 14.4804 25.7071 14.2929C25.5196 14.1054 25.2652 14 25 14ZM18 9C18.7956 9 19.5587 9.31607 20.1213 9.87868C20.6839 10.4413 21 11.2044 21 12C21 12.7956 20.6839 13.5587 20.1213 14.1213C19.5587 14.6839 18.7956 15 18 15C17.2044 15 16.4413 14.6839 15.8787 14.1213C15.3161 13.5587 15 12.7956 15 12C15 11.2044 15.3161 10.4413 15.8787 9.87868C16.4413 9.31607 17.2044 9 18 9ZM18 11C17.7348 11 17.4804 11.1054 17.2929 11.2929C17.1054 11.4804 17 11.7348 17 12C17 12.2652 17.1054 12.5196 17.2929 12.7071C17.4804 12.8946 17.7348 13 18 13C18.2652 13 18.5196 12.8946 18.7071 12.7071C18.8946 12.5196 19 12.2652 19 12C19 11.7348 18.8946 11.4804 18.7071 11.2929C18.5196 11.1054 18.2652 11 18 11Z" fill="#171719"/>
</g>
<rect x="0.5" y="0.5" width="37" height="37" rx="18.5" stroke="#E1E1E9"/>
<defs>
<clipPath id="clip0_1627_21345">
<rect width="24" height="24" fill="white" transform="translate(7 7)"/>
</clipPath>
</defs>
</svg>
