<svg width="30" height="30" viewBox="0 0 30 30" fill="none" xmlns="http://www.w3.org/2000/svg">
<g clip-path="url(#clip0_1627_22502)">
<path d="M14.9999 2.5C15.3314 2.5 15.6494 2.6317 15.8838 2.86612C16.1182 3.10054 16.2499 3.41848 16.2499 3.75V7.5C16.2499 7.83152 16.1182 8.14946 15.8838 8.38388C15.6494 8.6183 15.3314 8.75 14.9999 8.75C14.6684 8.75 14.3505 8.6183 14.116 8.38388C13.8816 8.14946 13.7499 7.83152 13.7499 7.5V3.75C13.7499 3.41848 13.8816 3.10054 14.116 2.86612C14.3505 2.6317 14.6684 2.5 14.9999 2.5ZM14.9999 21.25C15.3314 21.25 15.6494 21.3817 15.8838 21.6161C16.1182 21.8505 16.2499 22.1685 16.2499 22.5V26.25C16.2499 26.5815 16.1182 26.8995 15.8838 27.1339C15.6494 27.3683 15.3314 27.5 14.9999 27.5C14.6684 27.5 14.3505 27.3683 14.116 27.1339C13.8816 26.8995 13.7499 26.5815 13.7499 26.25V22.5C13.7499 22.1685 13.8816 21.8505 14.116 21.6161C14.3505 21.3817 14.6684 21.25 14.9999 21.25ZM25.8249 8.75C25.9907 9.0371 26.0356 9.37828 25.9498 9.6985C25.864 10.0187 25.6545 10.2917 25.3674 10.4575L22.1199 12.3325C21.9777 12.4159 21.8204 12.4703 21.6571 12.4926C21.4938 12.515 21.3276 12.5048 21.1682 12.4626C21.0089 12.4205 20.8594 12.3472 20.7285 12.2471C20.5975 12.147 20.4876 12.0219 20.4052 11.8792C20.3228 11.7364 20.2694 11.5787 20.2482 11.4153C20.2269 11.2518 20.2382 11.0857 20.2814 10.9266C20.3246 10.7675 20.3988 10.6186 20.4998 10.4883C20.6008 10.358 20.7266 10.249 20.8699 10.1675L24.1174 8.2925C24.4045 8.12675 24.7457 8.08183 25.0659 8.16763C25.3861 8.25342 25.6592 8.46291 25.8249 8.75ZM9.58743 18.125C9.75318 18.4121 9.7981 18.7533 9.7123 19.0735C9.6265 19.3937 9.41702 19.6667 9.12992 19.8325L5.88242 21.7075C5.74021 21.7909 5.58291 21.8453 5.41958 21.8676C5.25625 21.89 5.09012 21.8798 4.93074 21.8376C4.77137 21.7955 4.6219 21.7222 4.49095 21.6221C4.36 21.522 4.25015 21.3969 4.16772 21.2542C4.08529 21.1114 4.03192 20.9537 4.01067 20.7903C3.98942 20.6268 4.00072 20.4607 4.04391 20.3016C4.0871 20.1425 4.16134 19.9936 4.26234 19.8633C4.36334 19.733 4.48912 19.624 4.63242 19.5425L7.87992 17.6675C8.16702 17.5017 8.50821 17.4568 8.82842 17.5426C9.14864 17.6284 9.42166 17.8379 9.58743 18.125ZM25.8249 21.25C25.6592 21.5371 25.3861 21.7466 25.0659 21.8324C24.7457 21.9182 24.4045 21.8733 24.1174 21.7075L20.8699 19.8325C20.5852 19.6656 20.378 19.3928 20.2936 19.0736C20.2093 18.7545 20.2545 18.415 20.4196 18.1291C20.5846 17.8433 20.856 17.6343 21.1746 17.5478C21.4931 17.4613 21.833 17.5044 22.1199 17.6675L25.3674 19.5425C25.6545 19.7083 25.864 19.9813 25.9498 20.3015C26.0356 20.6217 25.9907 20.9629 25.8249 21.25ZM9.58743 11.875C9.42166 12.1621 9.14864 12.3716 8.82842 12.4574C8.50821 12.5432 8.16702 12.4983 7.87992 12.3325L4.63242 10.4575C4.48912 10.376 4.36334 10.267 4.26234 10.1367C4.16134 10.0064 4.0871 9.85746 4.04391 9.69837C4.00072 9.53927 3.98942 9.37321 4.01067 9.20974C4.03192 9.04626 4.08529 8.8886 4.16772 8.74584C4.25015 8.60308 4.36 8.47803 4.49095 8.37789C4.6219 8.27776 4.77137 8.20451 4.93074 8.16238C5.09012 8.12024 5.25625 8.11004 5.41958 8.13238C5.58291 8.15471 5.74021 8.20913 5.88242 8.2925L9.12992 10.1675C9.41702 10.3333 9.6265 10.6063 9.7123 10.9265C9.7981 11.2467 9.75318 11.5879 9.58743 11.875Z" fill="#171719"/>
</g>
<defs>
<clipPath id="clip0_1627_22502">
<rect width="30" height="30" fill="white"/>
</clipPath>
</defs>
</svg>
