<svg width="22" height="9" viewBox="0 0 22 9" fill="none" xmlns="http://www.w3.org/2000/svg">
<rect width="21.048" height="8" transform="translate(0.00390625 0.841797)" fill="white"/>
<path d="M16.0624 4.05992L16.8854 4.5536C16.9362 4.584 16.9782 4.62703 17.0074 4.67851C17.0366 4.73 17.0519 4.78816 17.0519 4.84734C17.0519 4.90652 17.0366 4.96468 17.0074 5.01616C16.9782 5.06764 16.9362 5.11068 16.8854 5.14108L10.8806 8.74401C10.7741 8.80799 10.6522 8.8418 10.5279 8.8418C10.4037 8.8418 10.2818 8.80799 10.1753 8.74401L4.17041 5.14108C4.11964 5.11068 4.07761 5.06764 4.04843 5.01616C4.01925 4.96468 4.00391 4.90652 4.00391 4.84734C4.00391 4.78816 4.01925 4.73 4.04843 4.67851C4.07761 4.62703 4.11964 4.584 4.17041 4.5536L4.99343 4.05992L10.5279 7.38076L16.0624 4.05992ZM16.0624 0.841797L16.8854 1.33547C16.9362 1.36587 16.9782 1.40891 17.0074 1.46039C17.0366 1.51187 17.0519 1.57003 17.0519 1.62921C17.0519 1.68839 17.0366 1.74655 17.0074 1.79804C16.9782 1.84952 16.9362 1.89256 16.8854 1.92295L10.5279 5.73746L4.17041 1.92295C4.11964 1.89256 4.07761 1.84952 4.04843 1.79804C4.01925 1.74655 4.00391 1.68839 4.00391 1.62921C4.00391 1.57003 4.01925 1.51187 4.04843 1.46039C4.07761 1.40891 4.11964 1.36587 4.17041 1.33547L4.99343 0.841797L10.5279 4.16263L16.0624 0.841797Z" fill="#A3A8B5"/>
</svg>
