<svg width="76" height="30" viewBox="0 0 76 30" fill="none" xmlns="http://www.w3.org/2000/svg">
<g clip-path="url(#clip0_728_574)">
<path d="M28.1428 1.85714C20.8842 9.11574 10.5867 10.5868 5.14279 5.14285C10.5867 10.5868 9.11568 20.8843 1.85708 28.1429C9.11568 20.8843 19.4131 19.4132 24.8571 24.8571C19.4131 19.4132 20.8842 9.11574 28.1428 1.85714Z" fill="white"/>
<path d="M28.1428 1.85718C18.536 11.464 17.5355 17.4833 17.5355 17.4833C17.5355 17.4833 11.7657 18.2343 1.85711 28.1429C9.11571 20.8843 19.4132 19.4132 24.8571 24.8572C19.4132 19.4132 20.8842 9.11578 28.1428 1.85718Z" fill="#CBD0DD"/>
<path d="M28.1428 1.85718C18.536 11.464 19.7151 19.6628 19.7151 19.6628C19.7151 19.6628 11.7657 18.2343 1.85711 28.1429C9.11571 20.8843 19.4132 19.4132 24.8571 24.8572C19.4132 19.4132 20.8842 9.11578 28.1428 1.85718Z" fill="#A3A8B5"/>
</g>
<path d="M38.0167 19.2H38.4276L38.1742 18.8766L35.0568 14.8987L37.9742 11.1223L38.2231 10.8H37.8159H36.2092H36.1114L36.0513 10.8772L33.9833 13.5362L31.9152 10.8772L31.8551 10.8H31.7573H30.1506H29.742L29.9927 11.1227L32.9267 14.8997L29.842 18.8774L29.5918 19.2H30H31.6402H31.7382L31.7983 19.1225L34.0006 16.2798L36.2189 19.123L36.2789 19.2H36.3766H38.0167Z" fill="white" stroke="white" stroke-width="0.4"/>
<path d="M47.9887 17.8916V19.4378C46.9646 19.8594 46.1012 20 44.9767 20C41.8843 20 40.0168 18.1928 40.0168 15C40.0168 11.8072 41.9245 10 44.9767 10C46.0008 10 47.0048 10.1406 47.9887 10.5422V12.1084C46.8642 11.6064 45.8401 11.4458 45.0168 11.4458C42.9285 11.4458 41.6835 12.5904 41.6835 15C41.6835 17.4096 43.1494 18.5743 45.0168 18.5743C46.1614 18.5743 47.2859 18.2329 47.9887 17.8916Z" fill="white"/>
<path d="M56.3211 19.7992H54.7348V15.3815C54.7348 14.5783 54.3332 14.0361 53.3894 14.0361C52.2448 14.0361 51.3814 14.9799 51.3814 15.9036V19.7992H49.795V10.2008H51.3814V13.7751C51.8633 13.1727 52.7067 12.6908 53.6705 12.6908C55.3573 12.6908 56.3211 13.6546 56.3211 15.1807V19.7992Z" fill="white"/>
<path d="M64.497 19.7992H62.9307C62.9307 19.7992 62.75 19.3173 62.75 18.8956C62.2078 19.498 61.3845 20 60.3404 20C58.9548 20 57.6295 19.4578 57.6295 17.6506C57.6295 14.6586 62.6697 16.2249 62.6697 14.759C62.6697 14.1767 61.9066 14.0361 61.0833 14.0361C60.3002 14.0361 59.256 14.2369 58.3725 14.7992V13.4337C59.0954 12.9518 59.9789 12.6908 61.1436 12.6908C62.7098 12.6908 64.2359 13.3735 64.2359 14.6988V18.1124C64.2359 18.7751 64.497 19.7992 64.497 19.7992ZM62.6496 17.3092V16.3454C61.5653 16.8273 59.1958 16.4458 59.1958 17.7108C59.1958 18.4739 59.8384 18.6747 60.5211 18.6747C61.5653 18.6747 62.6496 18.0321 62.6496 17.3092Z" fill="white"/>
<path d="M67.6029 11.7871H66.0165V10.2008H67.6029V11.7871ZM67.6029 19.7992H66.0165V12.7912H67.6029V19.7992Z" fill="white"/>
<path d="M75.9395 19.7992H74.3531V15.3012C74.3531 14.4578 73.8913 14.0361 73.068 14.0361C72.0238 14.0361 70.9997 14.9197 70.9997 15.8434V19.7992H69.4134V12.7912H70.9997V13.8153C71.5419 13.1526 72.4455 12.6908 73.3893 12.6908C74.8953 12.6908 75.9395 13.4538 75.9395 15.2008V19.7992Z" fill="white"/>
<defs>
<clipPath id="clip0_728_574">
<rect width="30" height="30" fill="white"/>
</clipPath>
</defs>
</svg>
