<svg width="110" height="30" viewBox="0 0 110 30" fill="none" xmlns="http://www.w3.org/2000/svg">
  <path d="M0 15C0 9.3629 0 6.54434 1.22186 4.44979C2.00143 3.11343 3.11343 2.00143 4.44979 1.22186C6.54434 0 9.3629 0 15 0C20.6371 0 23.4557 0 25.5502 1.22186C26.8866 2.00143 27.9986 3.11343 28.7781 4.44979C30 6.54434 30 9.3629 30 15C30 20.6371 30 23.4557 28.7781 25.5502C27.9986 26.8866 26.8866 27.9986 25.5502 28.7781C23.4557 30 20.6371 30 15 30C9.3629 30 6.54434 30 4.44979 28.7781C3.11343 27.9986 2.00143 26.8866 1.22186 25.5502C0 23.4557 0 20.6371 0 15Z" fill="#C33737" />
  <mask id="mask0_3359_12434" style="mask-type:alpha" maskUnits="userSpaceOnUse" x="0" y="0" width="30" height="30">
    <path d="M0 15C0 9.3629 0 6.54434 1.22186 4.44979C2.00143 3.11343 3.11343 2.00143 4.44979 1.22186C6.54434 0 9.3629 0 15 0C20.6371 0 23.4557 0 25.5502 1.22186C26.8866 2.00143 27.9986 3.11343 28.7781 4.44979C30 6.54434 30 9.3629 30 15C30 20.6371 30 23.4557 28.7781 25.5502C27.9986 26.8866 26.8866 27.9986 25.5502 28.7781C23.4557 30 20.6371 30 15 30C9.3629 30 6.54434 30 4.44979 28.7781C3.11343 27.9986 2.00143 26.8866 1.22186 25.5502C0 23.4557 0 20.6371 0 15Z" fill="#C33737" />
  </mask>
  <g mask="url(#mask0_3359_12434)">
    <path d="M5.81705 9.91273C5.81705 9.91273 8.2909 9.95148 9.84011 9.67401C10.9044 9.48339 12.3405 9.15353 12.5171 8.96715C12.6936 8.78076 13.021 6.00493 13.1885 4.73325C13.8583 4.51969 15.389 4.13074 15.389 4.13074C15.389 4.13074 14.6555 7.39453 14.6555 7.97698C14.6555 8.44294 15.2821 8.38335 15.651 8.29598C19.0365 7.49415 19.6015 6.78306 20.8115 6.88127C22.0215 6.97947 22.982 8.86349 22.982 8.86349C22.982 8.86349 16.2563 9.67401 16.2563 10.4712C16.2563 11.2695 28.6678 19.075 31.274 18.9307C30.2734 20.3881 27.5218 23.0351 23.5316 21.4982C21.0079 20.5261 16.8204 15.6656 15.9044 14.4692C14.9883 13.2727 14.3154 12.1698 13.6322 12.282C12.949 12.3941 11.9694 16.615 10.8098 18.6204C10.1425 19.7744 9.7353 20.8065 10.2774 21.0138C10.8196 21.221 11.8003 20.6224 12.2536 19.8769C12.6897 19.1597 12.5816 18.5293 12.9965 16.23C13.4114 13.9306 14.5463 14.7049 15.0776 15.8151C15.6519 17.015 15.6589 17.6882 16.2011 18.5294C16.7432 19.3706 18.3934 18.7746 18.6738 18.6998C18.9542 18.625 19.3153 18.8757 19.2426 19.2542C19.1779 19.5907 20.1361 20.2947 20.3686 20.432C18.9061 20.432 17.7208 20.2704 16.5644 21.0138C15.408 21.7571 15.9044 28.8953 15.0776 29.9255C14.342 30.8422 13.9213 29.604 13.6322 26.1762C13.3431 22.7483 13.1366 22.7483 12.5171 22.1701C10.7412 21.0963 8.61089 21.958 5.55519 24.7168C3.21787 26.827 2.06947 25.7961 1.48364 23.5061C7.51336 20.037 10.2684 15.2601 11.1808 13.7705C12.0932 12.2809 12.3927 11.2396 11.8291 11.3459C9.58196 11.7695 7.76978 12.6013 7.76978 12.6013C7.76978 12.6013 5.64945 10.192 5.81705 9.91273Z" fill="white" />
  </g>
  <path d="M101.532 12.3776V19.1608L102.651 19.5804V19.7902H99.9939V19.5804L101.113 19.1608V10.4895L100.134 10.2098V10H101.602C102.096 10 102.483 10.0886 102.763 10.2657C103.043 10.4429 103.309 10.6807 103.56 10.979L108.036 16.2238V10.6294L106.917 10.2098V10H109.574V10.2098L108.455 10.6294V20H108.036L101.532 12.3776Z" fill="white" />
  <path d="M88.4619 19.5804L89.3011 19.3706V10.4196L88.4619 10.2098V10H95.9444V12.5175H95.5249C95.3477 12.3776 95.1938 12.2005 95.0633 11.986C94.7649 11.4825 94.6158 10.9371 94.6158 10.3497H91.6088V14.7552H93.2172C93.2824 14.4009 93.4036 14.0699 93.5808 13.7622C93.6554 13.6224 93.744 13.4872 93.8465 13.3566H94.2661V16.5035H93.8465C93.744 16.373 93.6554 16.2378 93.5808 16.0979C93.4036 15.7902 93.2824 15.4592 93.2172 15.1049H91.6088V19.4406H94.8955C94.8955 18.8531 95.0447 18.3077 95.343 17.8042C95.4736 17.5897 95.6274 17.4126 95.8046 17.2727H96.2242V19.7902H88.4619V19.5804Z" fill="white" />
  <path d="M77.1284 19.5804L77.9676 19.3706V10.4196L77.1284 10.2098V10H84.6109V12.5175H84.1914C84.0142 12.3776 83.8604 12.2005 83.7298 11.986C83.4314 11.4825 83.2823 10.9371 83.2823 10.3497H80.2753V14.7552H81.8837C81.9489 14.4009 82.0701 14.0699 82.2473 13.7622C82.3219 13.6224 82.4105 13.4872 82.513 13.3566H82.9326V16.5035H82.513C82.4105 16.373 82.3219 16.2378 82.2473 16.0979C82.0701 15.7902 81.9489 15.4592 81.8837 15.1049H80.2753V19.3706L81.1144 19.5804V19.7902H77.1284V19.5804Z" fill="white" />
  <path d="M65.3737 12.3776V19.1608L66.4925 19.5804V19.7902H63.8352V19.5804L64.9541 19.1608V10.4895L63.9751 10.2098V10H65.4436C65.9378 10 66.3247 10.0886 66.6044 10.2657C66.8842 10.4429 67.1499 10.6807 67.4016 10.979L71.8772 16.2238V10.6294L70.7583 10.2098V10H73.4156V10.2098L72.2967 10.6294V20H71.8772L65.3737 12.3776Z" fill="white" />
  <path d="M52.3035 19.5804L53.1426 19.3706V10.4196L52.3035 10.2098V10H59.786V12.5175H59.3664C59.1892 12.3776 59.0354 12.2005 58.9049 11.986C58.6065 11.4825 58.4573 10.9371 58.4573 10.3497H55.4503V14.7552H57.0587C57.124 14.4009 57.2452 14.0699 57.4223 13.7622C57.4969 13.6224 57.5855 13.4872 57.6881 13.3566H58.1077V16.5035H57.6881C57.5855 16.373 57.4969 16.2378 57.4223 16.0979C57.2452 15.7902 57.124 15.4592 57.0587 15.1049H55.4503V19.4406H58.737C58.737 18.8531 58.8862 18.3077 59.1846 17.8042C59.3151 17.5897 59.469 17.4126 59.6461 17.2727H60.0657V19.7902H52.3035V19.5804Z" fill="white" />
  <path d="M40 19.5804L40.8392 19.3706V10.4196L40 10.2098V10H43.7762C45.1935 10 46.2331 10.2284 46.8951 10.6853C47.5664 11.1329 47.9021 11.7203 47.9021 12.4476C47.9021 12.951 47.7576 13.3566 47.4685 13.6643C47.1795 13.972 46.8112 14.2005 46.3636 14.3497C45.8881 14.5175 45.3753 14.6061 44.8252 14.6154V14.6853C45.5058 14.7133 46.0979 14.8159 46.6014 14.993C47.1142 15.1608 47.5385 15.4219 47.8741 15.7762C48.2191 16.1305 48.3916 16.5828 48.3916 17.1329C48.3916 17.9627 48.0513 18.6154 47.3706 19.0909C46.69 19.5571 45.5851 19.7902 44.0559 19.7902H40V19.5804ZM43.7762 14.4755C44.0839 14.4755 44.3683 14.3916 44.6294 14.2238C44.8998 14.0466 45.1142 13.8042 45.2727 13.4965C45.4406 13.1795 45.5245 12.8298 45.5245 12.4476C45.5245 12.0373 45.4406 11.6737 45.2727 11.3566C45.1142 11.0396 44.8998 10.7925 44.6294 10.6154C44.3683 10.4382 44.0839 10.3497 43.7762 10.3497H43.1469V14.4755H43.7762ZM44.0559 19.4406C44.634 19.4406 45.1049 19.2354 45.4685 18.8252C45.8322 18.4149 46.014 17.8508 46.014 17.1329C46.014 16.4149 45.8322 15.8508 45.4685 15.4406C45.1049 15.0303 44.634 14.8252 44.0559 14.8252H43.1469V19.4406H44.0559Z" fill="white" />
</svg>