<svg width="76" height="30" viewBox="0 0 76 30" fill="none" xmlns="http://www.w3.org/2000/svg">
<g clip-path="url(#clip0_728_1284)">
<g clip-path="url(#clip1_728_1284)">
<path d="M28.1428 1.85714C20.8842 9.11574 10.5867 10.5868 5.14279 5.14286C10.5867 10.5868 9.11567 20.8843 1.85708 28.1429C9.11567 20.8843 19.4131 19.4132 24.8571 24.8571C19.4131 19.4132 20.8842 9.11574 28.1428 1.85714Z" fill="white"/>
<path d="M28.1428 1.85714C20.8842 9.11574 10.5867 10.5868 5.14279 5.14286C10.5867 10.5868 9.11567 20.8843 1.85708 28.1429C9.11567 20.8843 19.4131 19.4132 24.8571 24.8571C19.4131 19.4132 20.8842 9.11574 28.1428 1.85714Z" fill="#171719"/>
<path d="M28.1431 1.85706C18.5363 11.4639 17.5357 17.4831 17.5357 17.4831C17.5357 17.4831 11.7659 18.2342 1.85735 28.1428C9.11595 20.8842 19.4134 19.4131 24.8574 24.8571C19.4134 19.4131 20.8845 9.11565 28.1431 1.85706Z" fill="#484851"/>
<path d="M28.1431 1.85706C18.5363 11.4639 19.7153 19.6627 19.7153 19.6627C19.7153 19.6627 11.7659 18.2342 1.85735 28.1428C9.11595 20.8842 19.4134 19.4131 24.8574 24.8571C19.4134 19.4131 20.8845 9.11565 28.1431 1.85706Z" fill="#6C6C7A"/>
</g>
</g>
<path d="M38.0167 19.2H38.4276L38.1742 18.8766L35.0568 14.8987L37.9742 11.1223L38.2231 10.8H37.8159H36.2092H36.1114L36.0513 10.8772L33.9833 13.5362L31.9152 10.8772L31.8551 10.8H31.7573H30.1506H29.742L29.9927 11.1227L32.9267 14.8997L29.842 18.8774L29.5918 19.2H30H31.6402H31.7382L31.7983 19.1225L34.0006 16.2798L36.2189 19.123L36.2789 19.2H36.3766H38.0167Z" fill="#171719" stroke="#171719" stroke-width="0.4"/>
<path d="M47.9885 17.8916V19.4378C46.9644 19.8594 46.1009 20 44.9764 20C41.8841 20 40.0166 18.1928 40.0166 15C40.0166 11.8072 41.9242 10 44.9764 10C46.0005 10 47.0046 10.1406 47.9885 10.5422V12.1084C46.864 11.6064 45.8399 11.4458 45.0166 11.4458C42.9282 11.4458 41.6833 12.5904 41.6833 15C41.6833 17.4096 43.1491 18.5743 45.0166 18.5743C46.1612 18.5743 47.2857 18.2329 47.9885 17.8916Z" fill="#171719"/>
<path d="M56.3209 19.7992H54.7345V15.3815C54.7345 14.5783 54.3329 14.0361 53.3892 14.0361C52.2446 14.0361 51.3811 14.9799 51.3811 15.9036V19.7992H49.7948V10.2008H51.3811V13.7751C51.863 13.1727 52.7064 12.6908 53.6703 12.6908C55.357 12.6908 56.3209 13.6546 56.3209 15.1807V19.7992Z" fill="#171719"/>
<path d="M64.4967 19.7992H62.9305C62.9305 19.7992 62.7498 19.3173 62.7498 18.8956C62.2076 19.498 61.3843 20 60.3401 20C58.9546 20 57.6293 19.4578 57.6293 17.6506C57.6293 14.6586 62.6694 16.2249 62.6694 14.759C62.6694 14.1767 61.9064 14.0361 61.0831 14.0361C60.3 14.0361 59.2558 14.2369 58.3722 14.7992V13.4337C59.0951 12.9518 59.9787 12.6908 61.1433 12.6908C62.7096 12.6908 64.2357 13.3735 64.2357 14.6988V18.1124C64.2357 18.7751 64.4967 19.7992 64.4967 19.7992ZM62.6494 17.3092V16.3454C61.565 16.8273 59.1955 16.4458 59.1955 17.7108C59.1955 18.4739 59.8381 18.6747 60.5208 18.6747C61.565 18.6747 62.6494 18.0321 62.6494 17.3092Z" fill="#171719"/>
<path d="M67.6026 11.7871H66.0163V10.2008H67.6026V11.7871ZM67.6026 19.7992H66.0163V12.7912H67.6026V19.7992Z" fill="#171719"/>
<path d="M75.9392 19.7992H74.3529V15.3012C74.3529 14.4578 73.891 14.0361 73.0677 14.0361C72.0236 14.0361 70.9995 14.9197 70.9995 15.8434V19.7992H69.4131V12.7912H70.9995V13.8153C71.5416 13.1526 72.4453 12.6908 73.389 12.6908C74.8951 12.6908 75.9392 13.4538 75.9392 15.2008V19.7992Z" fill="#171719"/>
<defs>
<clipPath id="clip0_728_1284">
<rect width="30" height="30" fill="white"/>
</clipPath>
<clipPath id="clip1_728_1284">
<rect width="30" height="30" fill="white"/>
</clipPath>
</defs>
</svg>
