<svg width="110" height="30" viewBox="0 0 110 30" fill="none" xmlns="http://www.w3.org/2000/svg">
  <path d="M0 15C0 9.3629 0 6.54434 1.22186 4.44979C2.00143 3.11343 3.11343 2.00143 4.44979 1.22186C6.54434 0 9.3629 0 15 0C20.6371 0 23.4557 0 25.5502 1.22186C26.8866 2.00143 27.9986 3.11343 28.7781 4.44979C30 6.54434 30 9.3629 30 15C30 20.6371 30 23.4557 28.7781 25.5502C27.9986 26.8866 26.8866 27.9986 25.5502 28.7781C23.4557 30 20.6371 30 15 30C9.3629 30 6.54434 30 4.44979 28.7781C3.11343 27.9986 2.00143 26.8866 1.22186 25.5502C0 23.4557 0 20.6371 0 15Z" fill="#C33737" />
  <mask id="mask0_3359_14780" style="mask-type:alpha" maskUnits="userSpaceOnUse" x="0" y="0" width="30" height="30">
    <path d="M0 15C0 9.3629 0 6.54434 1.22186 4.44979C2.00143 3.11343 3.11343 2.00143 4.44979 1.22186C6.54434 0 9.3629 0 15 0C20.6371 0 23.4557 0 25.5502 1.22186C26.8866 2.00143 27.9986 3.11343 28.7781 4.44979C30 6.54434 30 9.3629 30 15C30 20.6371 30 23.4557 28.7781 25.5502C27.9986 26.8866 26.8866 27.9986 25.5502 28.7781C23.4557 30 20.6371 30 15 30C9.3629 30 6.54434 30 4.44979 28.7781C3.11343 27.9986 2.00143 26.8866 1.22186 25.5502C0 23.4557 0 20.6371 0 15Z" fill="#C33737" />
  </mask>
  <g mask="url(#mask0_3359_14780)">
    <path d="M5.8173 9.91273C5.8173 9.91273 8.29114 9.95148 9.84035 9.67401C10.9047 9.48339 12.3408 9.15353 12.5173 8.96715C12.6939 8.78076 13.0213 6.00493 13.1888 4.73325C13.8586 4.51969 15.3893 4.13074 15.3893 4.13074C15.3893 4.13074 14.6558 7.39453 14.6558 7.97698C14.6558 8.44294 15.2823 8.38335 15.6512 8.29598C19.0367 7.49415 19.6017 6.78306 20.8117 6.88127C22.0217 6.97947 22.9822 8.86349 22.9822 8.86349C22.9822 8.86349 16.2566 9.67401 16.2566 10.4712C16.2566 11.2695 28.668 19.075 31.2743 18.9307C30.2737 20.3881 27.522 23.0351 23.5318 21.4982C21.0081 20.5261 16.8206 15.6656 15.9046 14.4692C14.9886 13.2727 14.3156 12.1698 13.6324 12.282C12.9492 12.3941 11.9697 16.615 10.8101 18.6204C10.1428 19.7744 9.73554 20.8065 10.2777 21.0138C10.8198 21.221 11.8005 20.6224 12.2539 19.8769C12.69 19.1597 12.5818 18.5293 12.9968 16.23C13.4117 13.9306 14.5465 14.7049 15.0779 15.8151C15.6521 17.015 15.6592 17.6882 16.2013 18.5294C16.7435 19.3706 18.3936 18.7746 18.674 18.6998C18.9544 18.625 19.3156 18.8757 19.2428 19.2542C19.1781 19.5907 20.1364 20.2947 20.3688 20.432C18.9063 20.432 17.721 20.2704 16.5647 21.0138C15.4083 21.7571 15.9046 28.8953 15.0779 29.9255C14.3422 30.8422 13.9215 29.604 13.6324 26.1762C13.3433 22.7483 13.1368 22.7483 12.5173 22.1701C10.7415 21.0963 8.61113 21.958 5.55543 24.7168C3.21812 26.827 2.06971 25.7961 1.48389 23.5061C7.51361 20.037 10.2686 15.2601 11.181 13.7705C12.0934 12.2809 12.393 11.2396 11.8293 11.3459C9.5822 11.7695 7.77002 12.6013 7.77002 12.6013C7.77002 12.6013 5.6497 10.192 5.8173 9.91273Z" fill="white" />
  </g>
  <path d="M101.532 12.3776V19.1608L102.651 19.5804V19.7902H99.9937V19.5804L101.113 19.1608V10.4895L100.134 10.2098V10H101.602C102.096 10 102.483 10.0886 102.763 10.2657C103.043 10.4429 103.308 10.6807 103.56 10.979L108.036 16.2238V10.6294L106.917 10.2098V10H109.574V10.2098L108.455 10.6294V20H108.036L101.532 12.3776Z" fill="black" />
  <path d="M88.4619 19.5804L89.3011 19.3706V10.4196L88.4619 10.2098V10H95.9444V12.5175H95.5249C95.3477 12.3776 95.1938 12.2005 95.0633 11.986C94.7649 11.4825 94.6158 10.9371 94.6158 10.3497H91.6088V14.7552H93.2172C93.2824 14.4009 93.4036 14.0699 93.5808 13.7622C93.6554 13.6224 93.744 13.4872 93.8465 13.3566H94.2661V16.5035H93.8465C93.744 16.373 93.6554 16.2378 93.5808 16.0979C93.4036 15.7902 93.2824 15.4592 93.2172 15.1049H91.6088V19.4406H94.8955C94.8955 18.8531 95.0447 18.3077 95.343 17.8042C95.4736 17.5897 95.6274 17.4126 95.8046 17.2727H96.2242V19.7902H88.4619V19.5804Z" fill="black" />
  <path d="M77.1284 19.5804L77.9676 19.3706V10.4196L77.1284 10.2098V10H84.6109V12.5175H84.1914C84.0142 12.3776 83.8604 12.2005 83.7298 11.986C83.4314 11.4825 83.2823 10.9371 83.2823 10.3497H80.2753V14.7552H81.8837C81.9489 14.4009 82.0701 14.0699 82.2473 13.7622C82.3219 13.6224 82.4105 13.4872 82.513 13.3566H82.9326V16.5035H82.513C82.4105 16.373 82.3219 16.2378 82.2473 16.0979C82.0701 15.7902 81.9489 15.4592 81.8837 15.1049H80.2753V19.3706L81.1144 19.5804V19.7902H77.1284V19.5804Z" fill="black" />
  <path d="M65.3739 12.3776V19.1608L66.4928 19.5804V19.7902H63.8354V19.5804L64.9543 19.1608V10.4895L63.9753 10.2098V10H65.4438C65.938 10 66.325 10.0886 66.6047 10.2657C66.8844 10.4429 67.1501 10.6807 67.4019 10.979L71.8774 16.2238V10.6294L70.7585 10.2098V10H73.4159V10.2098L72.297 10.6294V20H71.8774L65.3739 12.3776Z" fill="black" />
  <path d="M52.3032 19.5804L53.1424 19.3706V10.4196L52.3032 10.2098V10H59.7857V12.5175H59.3662C59.189 12.3776 59.0352 12.2005 58.9046 11.986C58.6063 11.4825 58.4571 10.9371 58.4571 10.3497H55.4501V14.7552H57.0585C57.1237 14.4009 57.2449 14.0699 57.4221 13.7622C57.4967 13.6224 57.5853 13.4872 57.6878 13.3566H58.1074V16.5035H57.6878C57.5853 16.373 57.4967 16.2378 57.4221 16.0979C57.2449 15.7902 57.1237 15.4592 57.0585 15.1049H55.4501V19.4406H58.7368C58.7368 18.8531 58.886 18.3077 59.1843 17.8042C59.3149 17.5897 59.4687 17.4126 59.6459 17.2727H60.0655V19.7902H52.3032V19.5804Z" fill="black" />
  <path d="M40 19.5804L40.8392 19.3706V10.4196L40 10.2098V10H43.7762C45.1935 10 46.2331 10.2284 46.8951 10.6853C47.5664 11.1329 47.9021 11.7203 47.9021 12.4476C47.9021 12.951 47.7576 13.3566 47.4685 13.6643C47.1795 13.972 46.8112 14.2005 46.3636 14.3497C45.8881 14.5175 45.3753 14.6061 44.8252 14.6154V14.6853C45.5058 14.7133 46.0979 14.8159 46.6014 14.993C47.1142 15.1608 47.5385 15.4219 47.8741 15.7762C48.2191 16.1305 48.3916 16.5828 48.3916 17.1329C48.3916 17.9627 48.0513 18.6154 47.3706 19.0909C46.69 19.5571 45.5851 19.7902 44.0559 19.7902H40V19.5804ZM43.7762 14.4755C44.0839 14.4755 44.3683 14.3916 44.6294 14.2238C44.8998 14.0466 45.1142 13.8042 45.2727 13.4965C45.4406 13.1795 45.5245 12.8298 45.5245 12.4476C45.5245 12.0373 45.4406 11.6737 45.2727 11.3566C45.1142 11.0396 44.8998 10.7925 44.6294 10.6154C44.3683 10.4382 44.0839 10.3497 43.7762 10.3497H43.1469V14.4755H43.7762ZM44.0559 19.4406C44.634 19.4406 45.1049 19.2354 45.4685 18.8252C45.8322 18.4149 46.014 17.8508 46.014 17.1329C46.014 16.4149 45.8322 15.8508 45.4685 15.4406C45.1049 15.0303 44.634 14.8252 44.0559 14.8252H43.1469V19.4406H44.0559Z" fill="black" />
</svg>