<svg width="77" height="30" viewBox="0 0 77 30" fill="none" xmlns="http://www.w3.org/2000/svg">
  <path d="M10.5843 5.38559C9.97178 7.11074 4.23714 6.85718 2.62305 2.28394C2.99966 7.66419 8.33958 8.42641 10.9625 8.13499C10.9625 7.86598 10.5843 5.76221 10.5843 5.38559Z" fill="#171719" />
  <path d="M10.9623 12.298V11.1868C6.14307 10.8563 2.4211 10.0293 2.4211 13.4214C2.4211 25.7032 0 27.8083 0 27.8083C0 27.8083 3.38183 25.8274 5.60849 19.971C6.16336 18.5116 3.36471 17.1437 4.55869 14.1163C5.22172 12.4351 7.32297 12.298 10.9623 12.298Z" fill="#171719" />
  <path d="M11.9347 5.38559C12.5473 7.11074 18.2819 6.85718 19.896 2.28394C19.5194 7.66419 14.1795 8.42641 11.5566 8.13499C11.5566 7.86598 11.9347 5.76221 11.9347 5.38559Z" fill="#171719" />
  <path d="M11.5941 12.298V11.1868C16.4133 10.8563 20.1353 10.0293 20.1353 13.4214C20.1353 25.7032 22.5564 27.8083 22.5564 27.8083C22.5564 27.8083 19.1746 25.8274 16.9479 19.971C16.393 18.5116 19.1917 17.1437 17.9977 14.1163C17.3347 12.4351 15.2334 12.298 11.5941 12.298Z" fill="#171719" />
  <path d="M10.5518 1.79967C10.5518 1.69308 10.5758 1.58787 10.6222 1.49189C10.8797 0.958725 11.6391 0.958725 11.8966 1.49189C11.943 1.58787 11.9671 1.69308 11.9671 1.79967V8.06263C11.9671 10.9141 12.3838 13.7502 13.204 16.4811C13.5339 17.5793 13.5339 18.7502 13.204 19.8485L13.1298 20.0957C12.3561 22.6717 11.805 25.3093 11.4825 27.9795L11.2594 29.8273L11.0363 27.9795C10.7139 25.3093 10.1628 22.6717 9.38906 20.0957L9.31479 19.8485C8.98493 18.7502 8.98493 17.5793 9.31479 16.4811C10.135 13.7502 10.5518 10.914 10.5518 8.06263V1.79967Z" fill="#171719" />
  <path d="M32.1226 19.915H27.5562V9.83887H32.4507C33.6857 9.8571 34.5607 10.2148 35.0757 10.9121C35.3856 11.3405 35.5405 11.8532 35.5405 12.4502C35.5405 13.0654 35.3856 13.5599 35.0757 13.9336C34.9025 14.1432 34.6473 14.3346 34.3101 14.5078C34.825 14.6947 35.2124 14.9909 35.4722 15.3965C35.7365 15.8021 35.8687 16.2943 35.8687 16.873C35.8687 17.4701 35.7183 18.0055 35.4175 18.4795C35.2261 18.7939 34.9868 19.0583 34.6997 19.2725C34.3761 19.5186 33.9933 19.6872 33.5513 19.7783C33.1138 19.8695 32.6375 19.915 32.1226 19.915ZM32.0747 15.4785H29.5659V18.165H32.0405C32.4826 18.165 32.8267 18.1058 33.0728 17.9873C33.5194 17.7686 33.7427 17.3493 33.7427 16.7295C33.7427 16.2054 33.5262 15.8454 33.0933 15.6494C32.8517 15.54 32.5122 15.4831 32.0747 15.4785ZM33.1206 13.5576C33.394 13.3936 33.5308 13.0996 33.5308 12.6758C33.5308 12.2064 33.3485 11.8965 32.9839 11.7461C32.6694 11.6413 32.2684 11.5889 31.7808 11.5889H29.5659V13.8105H32.0405C32.4826 13.8105 32.8426 13.7262 33.1206 13.5576Z" fill="#171719" />
  <path d="M43.8599 17.7275C43.8097 18.1696 43.5796 18.6185 43.1694 19.0742C42.5314 19.7988 41.6382 20.1611 40.4897 20.1611C39.5418 20.1611 38.7056 19.8558 37.981 19.2451C37.2563 18.6344 36.894 17.641 36.894 16.2646C36.894 14.9749 37.2199 13.986 37.8716 13.2979C38.5278 12.6097 39.3778 12.2656 40.4214 12.2656C41.0412 12.2656 41.5994 12.3818 42.0962 12.6143C42.5929 12.8467 43.0031 13.2135 43.3267 13.7148C43.6183 14.1569 43.8075 14.6696 43.894 15.2529C43.9442 15.5947 43.9647 16.0869 43.9556 16.7295H38.856C38.8833 17.4769 39.118 18.001 39.5601 18.3018C39.8289 18.4886 40.1525 18.582 40.5308 18.582C40.9318 18.582 41.2576 18.4681 41.5083 18.2402C41.645 18.1172 41.7658 17.9463 41.8706 17.7275H43.8599ZM41.9321 15.4443C41.9002 14.9294 41.743 14.5397 41.4604 14.2754C41.1825 14.0065 40.8361 13.8721 40.4214 13.8721C39.9702 13.8721 39.6193 14.0133 39.3687 14.2959C39.1226 14.5785 38.9676 14.9613 38.9038 15.4443H41.9321Z" fill="#171719" />
  <path d="M48.7817 13.9062C48.1209 13.9062 47.6675 14.1865 47.4214 14.7471C47.2938 15.0433 47.23 15.4215 47.23 15.8818V19.915H45.2886V12.4775H47.1685V13.5645C47.4191 13.1816 47.6561 12.9059 47.8794 12.7373C48.2804 12.4365 48.7886 12.2861 49.4038 12.2861C50.174 12.2861 50.8029 12.4889 51.2905 12.8945C51.7827 13.2956 52.0288 13.9632 52.0288 14.8975V19.915H50.0327V15.3828C50.0327 14.9909 49.9803 14.6901 49.8755 14.4805C49.6841 14.0977 49.3195 13.9062 48.7817 13.9062Z" fill="#171719" />
  <path d="M61.1343 11.623H56.0825V13.9404H60.5054V15.6904H56.0825V19.915H53.9907V9.85254H61.1343V11.623Z" fill="#171719" />
  <path d="M68.77 17.7275C68.7199 18.1696 68.4897 18.6185 68.0796 19.0742C67.4416 19.7988 66.5483 20.1611 65.3999 20.1611C64.452 20.1611 63.6157 19.8558 62.8911 19.2451C62.1665 18.6344 61.8042 17.641 61.8042 16.2646C61.8042 14.9749 62.13 13.986 62.7817 13.2979C63.438 12.6097 64.2879 12.2656 65.3315 12.2656C65.9513 12.2656 66.5096 12.3818 67.0063 12.6143C67.5031 12.8467 67.9132 13.2135 68.2368 13.7148C68.5285 14.1569 68.7176 14.6696 68.8042 15.2529C68.8543 15.5947 68.8748 16.0869 68.8657 16.7295H63.7661C63.7935 17.4769 64.0282 18.001 64.4702 18.3018C64.7391 18.4886 65.0627 18.582 65.4409 18.582C65.842 18.582 66.1678 18.4681 66.4185 18.2402C66.5552 18.1172 66.6759 17.9463 66.7808 17.7275H68.77ZM66.8423 15.4443C66.8104 14.9294 66.6532 14.5397 66.3706 14.2754C66.0926 14.0065 65.7463 13.8721 65.3315 13.8721C64.8804 13.8721 64.5295 14.0133 64.2788 14.2959C64.0327 14.5785 63.8778 14.9613 63.814 15.4443H66.8423Z" fill="#171719" />
  <path d="M73.6919 13.9062C73.0311 13.9062 72.5776 14.1865 72.3315 14.7471C72.2039 15.0433 72.1401 15.4215 72.1401 15.8818V19.915H70.1987V12.4775H72.0786V13.5645C72.3293 13.1816 72.5662 12.9059 72.7896 12.7373C73.1906 12.4365 73.6987 12.2861 74.314 12.2861C75.0841 12.2861 75.7131 12.4889 76.2007 12.8945C76.6929 13.2956 76.939 13.9632 76.939 14.8975V19.915H74.9429V15.3828C74.9429 14.9909 74.8905 14.6901 74.7856 14.4805C74.5942 14.0977 74.2297 13.9062 73.6919 13.9062Z" fill="#171719" />
</svg>