<?xml version="1.0" standalone="no"?>
<!DOCTYPE svg PUBLIC "-//W3C//DTD SVG 20010904//EN"
 "http://www.w3.org/TR/2001/REC-SVG-20010904/DTD/svg10.dtd">
<svg version="1.0" xmlns="http://www.w3.org/2000/svg"
 width="235.000000pt" height="42.000000pt" viewBox="0 0 235.000000 42.000000"
 preserveAspectRatio="xMidYMid meet">

<g transform="translate(0.000000,42.000000) scale(0.100000,-0.100000)"
fill="#ffffff" stroke="none">
<path d="M10 416 c0 -2 27 -22 59 -45 l59 -41 117 0 c130 0 165 -11 190 -60
31 -60 10 -137 -45 -165 -21 -11 -61 -15 -145 -15 l-117 0 -60 -43 -61 -42
189 -3 c104 -2 204 0 222 3 46 9 100 59 113 107 10 38 9 42 -17 69 l-28 29 28
29 c25 26 27 32 17 68 -12 43 -51 86 -94 102 -25 10 -427 17 -427 7z"/>
<path d="M705 326 c-61 -27 -91 -88 -74 -150 24 -86 134 -116 203 -55 41 36
53 81 36 133 -21 64 -104 100 -165 72z m95 -56 c33 -33 30 -85 -7 -118 -46
-42 -113 -4 -113 63 0 62 78 97 120 55z"/>
<path d="M1720 215 l0 -125 25 0 25 0 0 125 0 125 -25 0 -25 0 0 -125z"/>
<path d="M2180 215 l0 -125 24 0 c21 0 25 5 28 38 l3 37 25 -37 c19 -28 32
-38 53 -38 33 0 33 3 1 46 -29 37 -27 47 12 102 16 21 16 22 -9 22 -17 0 -35
-12 -56 -37 l-30 -38 -1 78 c0 75 -1 77 -25 77 l-25 0 0 -125z"/>
<path d="M1498 318 c8 -8 12 -49 12 -120 l0 -108 65 0 c57 0 69 3 90 25 29 28
31 51 9 84 -12 17 -13 26 -5 34 17 17 13 62 -7 80 -23 21 -185 26 -164 5z
m127 -53 c0 -15 -8 -21 -32 -23 -30 -3 -33 -1 -33 23 0 24 3 26 33 23 24 -2
32 -8 32 -23z m6 -81 c19 -23 -1 -48 -40 -52 -30 -3 -31 -2 -31 32 0 33 2 36
29 36 16 0 34 -7 42 -16z"/>
<path d="M114 235 c-15 -23 -15 -27 0 -50 16 -24 20 -25 125 -25 92 0 110 3
124 18 22 24 21 45 -1 65 -15 14 -40 17 -125 17 -103 0 -107 -1 -123 -25z"/>
<path d="M904 243 c3 -8 6 -62 6 -119 l0 -104 25 0 c22 0 25 4 25 39 0 35 2
38 25 33 45 -8 75 6 91 43 32 76 -10 123 -112 123 -54 0 -65 -2 -60 -15z m121
-67 c0 -36 -26 -56 -49 -37 -16 14 -22 52 -9 65 4 4 19 6 33 4 20 -2 25 -8 25
-32z"/>
<path d="M1134 236 c-61 -52 -21 -146 62 -146 76 0 81 43 6 44 -20 1 -37 7
-39 14 -4 9 12 12 57 12 l62 0 -6 28 c-9 37 -51 72 -86 72 -16 0 -41 -11 -56
-24z m86 -31 c11 -13 7 -15 -24 -15 -34 0 -44 8 -29 23 11 12 40 8 53 -8z"/>
<path d="M1298 174 c3 -81 4 -84 28 -84 22 0 24 4 24 49 0 53 19 84 45 75 11
-5 15 -22 15 -65 0 -56 1 -59 25 -59 24 0 25 2 25 68 0 89 -11 100 -100 100
l-65 1 3 -85z"/>
<path d="M1829 231 c-58 -59 -23 -141 61 -141 95 0 126 114 43 158 -37 20 -73
14 -104 -17z m95 -37 c10 -27 7 -43 -13 -54 -11 -5 -26 -7 -35 -4 -21 8 -30
42 -16 59 16 20 56 19 64 -1z"/>
<path d="M2045 248 c-51 -29 -61 -93 -20 -133 27 -28 95 -35 114 -11 15 18
-10 40 -37 32 -30 -10 -56 16 -48 47 5 23 12 27 40 27 43 0 66 24 37 39 -25
14 -61 13 -86 -1z"/>
</g>
</svg>
