<?xml version="1.0" standalone="no"?><!DOCTYPE svg PUBLIC "-//W3C//DTD SVG 1.1//EN" "http://www.w3.org/Graphics/SVG/1.1/DTD/svg11.dtd"><svg t="1686551779881" class="icon" viewBox="0 0 1024 1024" version="1.1" xmlns="http://www.w3.org/2000/svg" p-id="2835" width="64" height="64" xmlns:xlink="http://www.w3.org/1999/xlink"><path d="M0 0m292.571429 0l438.857142 0q292.571429 0 292.571429 292.571429l0 438.857142q0 292.571429-292.571429 292.571429l-438.857142 0q-292.571429 0-292.571429-292.571429l0-438.857142q0-292.571429 292.571429-292.571429Z" fill="#4940E6" p-id="2836" data-spm-anchor-id="a313x.7781069.0.i5" class="selected"></path><path d="M892.255086 432.596114c0-117.730743-96.490057-213.167543-215.537372-213.167543H131.569371l174.255543 125.396115h290.6112c93.359543 0 169.047771 74.839771 169.047772 167.175314 0 92.335543-75.688229 167.175314-169.047772 167.175314h-290.6112L131.569371 804.571429H676.717714c119.047314 0 215.537371-95.4368 215.537372-213.167543v-5.090743l-75.278629-74.313143 75.278629-74.400914v-5.002972z" fill="#FFFFFF" p-id="2837" data-spm-anchor-id="a313x.7781069.0.i4" class="selected"></path><path d="M274.373486 440.963657m71.0656 0l251.845485 0q71.0656 0 71.0656 71.0656l0-0.029257q0 71.0656-71.0656 71.0656l-251.845485 0q-71.0656 0-71.0656-71.0656l0 0.029257q0-71.0656 71.0656-71.0656Z" fill="#FFFFFF" p-id="2838" data-spm-anchor-id="a313x.7781069.0.i6" class="selected"></path></svg>