<svg width="46" height="46" viewBox="0 0 46 46" fill="none" xmlns="http://www.w3.org/2000/svg">
  <rect width="46" height="46" rx="23" fill="#C33737" />
  <mask id="mask0_3342_18759" style="mask-type:alpha" maskUnits="userSpaceOnUse" x="0" y="0" width="46" height="46">
    <rect width="46" height="46" rx="23" fill="#C33737" />
  </mask>
  <g mask="url(#mask0_3342_18759)">
    <path d="M8.91971 15.199C8.91971 15.199 12.7129 15.2584 15.0884 14.8329C16.7204 14.5406 18.9224 14.0349 19.1931 13.7491C19.4638 13.4633 19.9658 9.20702 20.2226 7.25711C21.2497 6.92964 23.5967 6.33325 23.5967 6.33325C23.5967 6.33325 22.472 11.3377 22.472 12.2308C22.472 12.9453 23.4328 12.8539 23.9984 12.72C29.1895 11.4905 30.0559 10.4001 31.9112 10.5507C33.7665 10.7013 35.2393 13.5901 35.2393 13.5901C35.2393 13.5901 24.9266 14.8329 24.9266 16.0553C24.9266 17.2793 43.9575 29.2477 47.9538 29.0265C46.4195 31.2612 42.2003 35.32 36.082 32.9633C32.2123 31.4728 25.7915 24.02 24.3869 22.1855C22.9824 20.351 21.9504 18.6598 20.9029 18.8318C19.8553 19.0038 18.3534 25.4758 16.5753 28.5507C15.5521 30.3202 14.9277 31.9027 15.7589 32.2205C16.5902 32.5383 18.094 31.6205 18.7891 30.4773C19.4578 29.3776 19.292 28.4111 19.9282 24.8854C20.5644 21.3597 22.3045 22.547 23.1193 24.2494C23.9998 26.0891 24.0106 27.1213 24.8419 28.4112C25.6731 29.7011 28.2034 28.7871 28.6334 28.6725C29.0633 28.5578 29.6171 28.9422 29.5055 29.5225C29.4063 30.0385 30.8756 31.1181 31.232 31.3285C28.9895 31.3285 27.1721 31.0807 25.399 32.2205C23.6259 33.3604 24.3869 44.3056 23.1193 45.8853C21.9913 47.2909 21.3462 45.3923 20.9029 40.1363C20.4596 34.8802 20.143 34.8802 19.1931 33.9937C16.4701 32.3472 13.2036 33.6684 8.51819 37.8986C4.9343 41.1342 3.17341 39.5535 2.27515 36.0422C11.5207 30.7228 15.7451 23.3983 17.1441 21.1142C18.5431 18.8301 19.0024 17.2335 18.1382 17.3964C14.6926 18.046 11.9139 19.3214 11.9139 19.3214C11.9139 19.3214 8.66272 15.6272 8.91971 15.199Z" fill="#F6F7F2" />
  </g>
</svg>