<svg xmlns="http://www.w3.org/2000/svg" width="1728" height="1117" viewBox="0 0 1728 1117" fill="none">
  <g clip-path="url(#clip0_123_9194)">
    <rect width="1728" height="1117" fill="#171719" />
    <g style="mix-blend-mode:soft-light">
      <path d="M-135.331 1004.26C-248.874 1078.57 -365.62 1123.5 -462.886 1144.44C-338.792 1102.07 -230.13 1055 -135.331 1004.26C188.306 792.43 485.91 341.855 232.145 -472.466C469.59 -141.549 680.553 567.516 -135.331 1004.26Z" fill="url(#paint0_linear_123_9194)" />
      <path d="M-462.886 1144.44C-88.3779 1063.81 574.939 627.545 232.145 -472.466C497.179 -103.1 729.219 737.396 -462.886 1144.44Z" stroke="url(#paint1_linear_123_9194)" />
    </g>
    <g style="mix-blend-mode:soft-light">
      <path d="M-462.886 1144.45C-88.3778 1063.81 574.939 627.545 232.145 -472.466C528.352 -667.756 713.611 -629.582 793.747 -472.466C992.616 -82.5602 544.074 1039.85 -462.886 1144.45Z" fill="url(#paint2_linear_123_9194)" />
      <path d="M232.145 -472.466C574.939 627.545 -88.3779 1063.81 -462.886 1144.45C949.837 997.704 1263.43 -1152.4 232.145 -472.466ZM232.145 -472.466H862.658" stroke="url(#paint3_linear_123_9194)" />
    </g>
    <g style="mix-blend-mode:soft-light">
      <path d="M1397.56 -322.655C797.147 -376.033 241.122 677.491 38.1619 1210.93L49.4479 1290.12H2404.46V-322.655C2319 -300.414 1997.98 -269.277 1397.56 -322.655Z" fill="url(#paint4_radial_123_9194)" />
      <path d="M1397.56 -322.655C797.147 -376.033 241.122 677.491 38.1619 1210.93L49.4479 1290.12H2404.46V-322.655C2319 -300.414 1997.98 -269.277 1397.56 -322.655Z" stroke="url(#paint5_linear_123_9194)" />
    </g>
    <g style="mix-blend-mode:soft-light">
      <path d="M2475.49 183.335C2010.76 -103.375 338.794 850.961 -88.6463 1328.22L-118.242 1415.02L1807.2 2321.6L3427.07 226.328C3346.3 216.585 2940.22 470.045 2475.49 183.335Z" fill="url(#paint6_linear_123_9194)" />
      <path d="M2475.49 183.335C2010.76 -103.375 338.794 850.961 -88.6463 1328.22L-118.242 1415.02L1807.2 2321.6L3427.07 226.328C3346.3 216.585 2940.22 470.045 2475.49 183.335Z" stroke="url(#paint7_linear_123_9194)" />
    </g>
    <g style="mix-blend-mode:soft-light">
      <path d="M1318.36 1321.94C1339.43 817.233 1944.36 77.0957 2244.19 -229.884H2382.44V1321.94H1318.36Z" fill="url(#paint8_linear_123_9194)" />
      <path d="M1318.36 1321.94C1339.43 817.233 1944.36 77.0957 2244.19 -229.884H2382.44V1321.94H1318.36Z" stroke="url(#paint9_linear_123_9194)" />
    </g>
    <g style="mix-blend-mode:soft-light">
      <path d="M604.894 1369.35C639.409 818.41 1630.48 10.4862 2121.7 -324.609H2348.21V1369.35H604.894Z" fill="url(#paint10_radial_123_9194)" />
      <path d="M604.894 1369.35C639.409 818.41 1630.48 10.4862 2121.7 -324.609H2348.21V1369.35H604.894Z" stroke="url(#paint11_linear_123_9194)" />
    </g>
    <g style="mix-blend-mode:overlay">
      <path d="M2109.69 600.426C2109.69 600.426 1230.46 465.24 596.798 1192.53L525.132 1398.12H2109.69C2117.34 1057.29 2109.69 600.426 2109.69 600.426Z" fill="url(#paint12_radial_123_9194)" />
      <path d="M2109.69 600.426C2109.69 600.426 1230.46 465.24 596.798 1192.53L525.132 1398.12H2109.69C2117.34 1057.29 2109.69 600.426 2109.69 600.426Z" stroke="url(#paint13_linear_123_9194)" />
    </g>
  </g>
  <defs>
    <linearGradient id="paint0_linear_123_9194" x1="-8.62311" y1="-472.466" x2="-8.62311" y2="1144.44" gradientUnits="userSpaceOnUse">
      <stop stop-color="#7C7C7C" />
      <stop offset="0.0001" stop-color="white" />
      <stop offset="1" stop-color="#7C7C7C" stop-opacity="0" />
      <stop offset="1" stop-opacity="0" />
    </linearGradient>
    <linearGradient id="paint1_linear_123_9194" x1="-8.62311" y1="-472.466" x2="-8.62311" y2="1144.44" gradientUnits="userSpaceOnUse">
      <stop offset="0.609375" stop-color="white" />
      <stop offset="1" stop-color="white" stop-opacity="0" />
    </linearGradient>
    <linearGradient id="paint2_linear_123_9194" x1="-8.62325" y1="-472.466" x2="-8.62325" y2="1144.45" gradientUnits="userSpaceOnUse">
      <stop stop-color="#7C7C7C" />
      <stop offset="0.0001" stop-color="white" />
      <stop offset="1" stop-color="#7C7C7C" stop-opacity="0" />
      <stop offset="1" stop-opacity="0" />
    </linearGradient>
    <linearGradient id="paint3_linear_123_9194" x1="193.935" y1="-472.466" x2="992.071" y2="1321.82" gradientUnits="userSpaceOnUse">
      <stop stop-color="white" />
      <stop offset="0.640625" stop-color="white" stop-opacity="0" />
    </linearGradient>
    <radialGradient id="paint4_radial_123_9194" cx="0" cy="0" r="1" gradientUnits="userSpaceOnUse" gradientTransform="translate(1344.14 52.3221) rotate(81.2292) scale(1026.35 1511.8)">
      <stop stop-color="#C4C4C4" />
      <stop offset="1" stop-color="#C4C4C4" stop-opacity="0" />
    </radialGradient>
    <linearGradient id="paint5_linear_123_9194" x1="1221.31" y1="-324.609" x2="-51.5258" y2="1116.86" gradientUnits="userSpaceOnUse">
      <stop stop-color="white" />
      <stop offset="1" stop-color="white" stop-opacity="0" />
    </linearGradient>
    <linearGradient id="paint6_linear_123_9194" x1="1631.44" y1="184.949" x2="2031.05" y2="2180.2" gradientUnits="userSpaceOnUse">
      <stop stop-color="#888888" />
      <stop offset="1" stop-color="#C4C4C4" stop-opacity="0" />
    </linearGradient>
    <linearGradient id="paint7_linear_123_9194" x1="1631.44" y1="184.949" x2="-250.293" y2="739.983" gradientUnits="userSpaceOnUse">
      <stop stop-color="white" />
      <stop offset="1" stop-color="white" stop-opacity="0" />
    </linearGradient>
    <linearGradient id="paint8_linear_123_9194" x1="2092.77" y1="295.292" x2="2566.23" y2="1067.39" gradientUnits="userSpaceOnUse">
      <stop stop-color="#848484" stop-opacity="0.7" />
      <stop offset="1" stop-color="#C4C4C4" stop-opacity="0" />
    </linearGradient>
    <linearGradient id="paint9_linear_123_9194" x1="1737.97" y1="206.717" x2="967.99" y2="654.479" gradientUnits="userSpaceOnUse">
      <stop stop-color="white" stop-opacity="0" />
      <stop offset="0.536458" stop-color="white" />
    </linearGradient>
    <radialGradient id="paint10_radial_123_9194" cx="0" cy="0" r="1" gradientUnits="userSpaceOnUse" gradientTransform="translate(1367.45 430.792) rotate(73.9462) scale(726.444 997.65)">
      <stop stop-color="white" stop-opacity="0.83" />
      <stop offset="0.908961" stop-color="#C4C4C4" stop-opacity="0" />
    </radialGradient>
    <linearGradient id="paint11_linear_123_9194" x1="1292.35" y1="151.979" x2="334.182" y2="988.26" gradientUnits="userSpaceOnUse">
      <stop stop-color="white" stop-opacity="0" />
      <stop offset="0.536458" stop-color="white" />
    </linearGradient>
    <radialGradient id="paint12_radial_123_9194" cx="0" cy="0" r="1" gradientUnits="userSpaceOnUse" gradientTransform="translate(1219.08 890.954) rotate(19.292) scale(1578.94 3202.11)">
      <stop stop-color="#171717" stop-opacity="0.32" />
      <stop offset="0.908961" stop-color="#C4C4C4" stop-opacity="0" />
    </radialGradient>
    <linearGradient id="paint13_linear_123_9194" x1="2129.25" y1="697.449" x2="1239.72" y2="1215.51" gradientUnits="userSpaceOnUse">
      <stop stop-color="white" stop-opacity="0" />
      <stop stop-color="white" stop-opacity="0" />
      <stop offset="0.537275" stop-color="white" />
      <stop offset="1" stop-color="white" stop-opacity="0" />
    </linearGradient>
    <clipPath id="clip0_123_9194">
      <rect width="1728" height="1117" fill="white" />
    </clipPath>
  </defs>
</svg>